<svg xmlns="http://www.w3.org/2000/svg" width="207.856" height="205.201" viewBox="0 0 207.856 205.201">
  <g id="Groupe_80" data-name="Groupe 80" transform="translate(0.249 1.359)">
    <path id="Tracé_64" data-name="Tracé 64" d="M1778.265,4154.742s98.088-58.4,113.213-56.721,15.755,1.9,18.907,5.875c3.145,4,7.771,23.115-10.3,29.835s-96.621,23.737-117.206,27.1C1782.884,4160.83,1770.2,4161.726,1778.265,4154.742Z" transform="translate(-1775.582 -3957.294)" fill="none" stroke="#030502" stroke-miterlimit="10" stroke-width="0.5"/>
    <path id="Tracé_65" data-name="Tracé 65" d="M1808.064,4170.774s-46.471-10.22-25.253-55.808l12.076-19.955s12.813,2.629,19.22-3.254c0,0,23.1,14.391,28.142,26.365,0,0,9.339,15.846,1.315,33.7" transform="translate(-1765.001 -3996.508)" fill="none" stroke="#030502" stroke-miterlimit="10" stroke-width="0.5"/>
    <g id="Groupe_57" data-name="Groupe 57" transform="translate(13.184 0)">
      <path id="Tracé_66" data-name="Tracé 66" d="M1794.09,4158.9s2.2-39.062-16.7-77.291c0,0,28.362,35.708,26.886,77.291" transform="translate(-1777.389 -4060.399)" fill="none" stroke="#030502" stroke-miterlimit="10" stroke-width="0.5"/>
      <path id="Tracé_67" data-name="Tracé 67" d="M1797.419,4173.958s-10.238-53.666-12.135-95.253c0,0-10.434,31.4-2.217,62.965" transform="translate(-1761.496 -4078.705)" fill="none" stroke="#030502" stroke-miterlimit="10" stroke-width="0.5"/>
      <path id="Tracé_68" data-name="Tracé 68" d="M1797.345,4141.75s16.313-12.04,24.346-7.161c0,0,6.933-1.885,3.147-3.6s-.943-4.279-.943-4.279,8.508-.787,12.916-3.618-2.363-2.99-2.363-2.99c-5.825-1.9-1.892-3.785-1.892-3.785,6.307-.151,22.533-8.2,24.736-9.617s12.288-8.5,2.2-13.228-25.2,15.127-28.516,16.384-1.568-3.781-5.668-5.673-10.713,18.909-10.24,13.708-2.838-6.775-2.838-6.775c-11.026-.155-18.366,24.181-18.366,24.181" transform="translate(-1673.607 -3990.292)" fill="none" stroke="#030502" stroke-miterlimit="10" stroke-width="0.5"/>
      <path id="Tracé_69" data-name="Tracé 69" d="M1794.461,4111.753s19.255,10.559,24.449,9.451.949-5.666.949-5.666,1.314-2.524,5.307.473,6.194,3.936,8.4,2.676-4.413-6.146-2.837-6.934,19.677,9.292,29.455,4.1-1.414-9.793-6.458-10.169-20,1.192-20,1.192-1.888-2.838-.635-4.73.475-4.4-3.153-3.463-6.456,3.463-8.033,3.153-1.343-2.336-3.933-3.3" transform="translate(-1669.885 -3954.223)" fill="none" stroke="#030502" stroke-miterlimit="10" stroke-width="0.5"/>
      <path id="Tracé_70" data-name="Tracé 70" d="M1788.256,4100.039s3.385,20.024,9.566,27.225" transform="translate(-1708.963 -3944.378)" fill="none" stroke="#030502" stroke-miterlimit="10" stroke-width="0.5"/>
      <path id="Tracé_71" data-name="Tracé 71" d="M1790.89,4100.756s2.187,11.213,8.813,16.893" transform="translate(-1692.378 -3939.865)" fill="none" stroke="#030502" stroke-miterlimit="10" stroke-width="0.5"/>
      <path id="Tracé_72" data-name="Tracé 72" d="M1783.24,4102.164s1.694,14.795,5.853,21.212" transform="translate(-1740.548 -3930.982)" fill="none" stroke="#030502" stroke-miterlimit="10" stroke-width="0.5"/>
      <path id="Tracé_73" data-name="Tracé 73" d="M1786.111,4102.164a47.961,47.961,0,0,0,7.144,16.117" transform="translate(-1722.463 -3930.982)" fill="none" stroke="#030502" stroke-miterlimit="10" stroke-width="0.5"/>
      <path id="Tracé_74" data-name="Tracé 74" d="M1785.146,4109.074a17.478,17.478,0,0,1,14.186-7.771c9.977-.422,11.027,1.474,11.655,0s-2.1-13.239,3.151-13.871,8.3-.838,8.136,5.077.555,9.924,2.364,9.447,19.481-3.806,25.412,4.593c0,0,1.264,2.423-1.364,2.524s-13.652-1.9-14.227,0,7.771,10.815,9.66,15.182-3.626,1.881-3.626,1.881-11.237-8.876-15.17-6.41-3.1,14.868-3.1,14.868-.212,4.409-2.94,6.724-5.983,4.712-6.407-1.051c-.422-5.782.212-27.106-6.618-21.848a59.337,59.337,0,0,0-11.236,7.143s-6.094,4.308-5.67.416,7.033-12.289,10.5-14.279.946-6.623-5.248-4.94-7.769,5.46-8.618,3.89Z" transform="translate(-1728.539 -4025.653)" fill="none" stroke="#030502" stroke-miterlimit="10" stroke-width="0.5"/>
      <path id="Tracé_75" data-name="Tracé 75" d="M1783.1,4105.478s12.308-14.3,15.269-15.257" transform="translate(-1741.429 -4006.178)" fill="none" stroke="#030502" stroke-miterlimit="10" stroke-width="0.5"/>
      <path id="Tracé_76" data-name="Tracé 76" d="M1794.073,4090.016s18.387,13.979,20.352,27.575.693,16.294.693,16.294" transform="translate(-1672.329 -4007.497)" fill="none" stroke="#030502" stroke-miterlimit="10" stroke-width="0.5"/>
    </g>
  </g>
</svg>
