<svg xmlns="http://www.w3.org/2000/svg" width="191.989" height="137.962" viewBox="0 0 191.989 137.962">
  <g id="Groupe_82" data-name="Groupe 82" transform="translate(0.302 0.289)">
    <path id="Tracé_40" data-name="Tracé 40" d="M1943.537,4088.426c-.814-.243-46.592-13.559-59.582-26.268s-9.6-20.333-9.6-20.333,3.671-6.208,21.461,4.518,56.475,36.149,64.382,27.4-14.682-25.144-14.682-25.144-73.138-71.155-127.92-61.839-44.616,42.924-44.616,42.924,1.128,43.207,119.729,62.976c0,0,25.134,5.078,36.431,8.747s18.352-3.381,18.352-3.381S1949.99,4090.3,1943.537,4088.426Z" transform="translate(-1771.513 -3985.919)" fill="none" stroke="#030502" stroke-miterlimit="10" stroke-width="0.5"/>
    <path id="Tracé_41" data-name="Tracé 41" d="M1948.1,4069.3v20.9s-7.341,9.881-40.1,0-46.027-6.637-64.661-16.454-63.257-27.317-67.209-39.75c-3.955-12.415-4.972-38.022-3.1-42.544" transform="translate(-1772.118 -3957.188)" fill="none" stroke="#030502" stroke-miterlimit="10" stroke-width="0.5"/>
    <path id="Tracé_42" data-name="Tracé 42" d="M1772.94,3992.673s12.567-6.619,25.372-2.286,41.414,19.954,41.414,19.954-3.392,8.281,2.442,10.729,18.076,0,18.076,0l10.525,5.073" transform="translate(-1767.852 -3970.338)" fill="none" stroke="#030502" stroke-miterlimit="10" stroke-width="0.5"/>
    <path id="Tracé_43" data-name="Tracé 43" d="M1777.27,3986.8s-2.716,12.64,2.32,14.569" transform="translate(-1749.128 -3981.331)" fill="none" stroke="#030502" stroke-miterlimit="10" stroke-width="0.5"/>
    <path id="Tracé_44" data-name="Tracé 44" d="M1808.193,3986.264s-30.012,2.931-28.685,24.407" transform="translate(-1733.905 -3984.137)" fill="none" stroke="#030502" stroke-miterlimit="10" stroke-width="0.5"/>
    <path id="Tracé_45" data-name="Tracé 45" d="M1817.307,3987.312s-26.235-.044-35.716,24.426" transform="translate(-1722.855 -3978.676)" fill="none" stroke="#030502" stroke-miterlimit="10" stroke-width="0.5"/>
    <path id="Tracé_46" data-name="Tracé 46" d="M1783.71,3995.37a21.462,21.462,0,0,1,21.647-1.22s8.377,5.267-1.128,11.955" transform="translate(-1711.834 -3955.37)" fill="none" stroke="#030502" stroke-miterlimit="10" stroke-width="0.5"/>
    <path id="Tracé_47" data-name="Tracé 47" d="M1812.391,4025.8s10.791-7.66,0-36.517l-25.189,17.932" transform="translate(-1693.678 -3968.438)" fill="none" stroke="#030502" stroke-miterlimit="10" stroke-width="0.5"/>
    <path id="Tracé_48" data-name="Tracé 48" d="M1806.219,3991.684s5.606,19.334-13.479,26.865" transform="translate(-1664.877 -3955.956)" fill="none" stroke="#030502" stroke-miterlimit="10" stroke-width="0.5"/>
    <path id="Tracé_49" data-name="Tracé 49" d="M1795.037,4015.965s15.435-5.058,16.557-22.117" transform="translate(-1652.927 -3944.687)" fill="none" stroke="#030502" stroke-miterlimit="10" stroke-width="0.5"/>
    <path id="Tracé_50" data-name="Tracé 50" d="M1797.707,4014.243s13.542-7.761,15.006-18.264" transform="translate(-1639.04 -3933.611)" fill="none" stroke="#030502" stroke-miterlimit="10" stroke-width="0.5"/>
    <path id="Tracé_51" data-name="Tracé 51" d="M1773.306,4020.61s-2.084-20.505,39.406-30.329" transform="translate(-1766.036 -3963.24)" fill="none" stroke="#030502" stroke-miterlimit="10" stroke-width="0.5"/>
    <path id="Tracé_52" data-name="Tracé 52" d="M1812.484,3991.351l-5.929,2.054c-52.37,17.093-21.813,42.984-21.813,42.984l42.133-27.982" transform="translate(-1752.557 -3957.675)" fill="none" stroke="#030502" stroke-miterlimit="10" stroke-width="0.5"/>
    <path id="Tracé_53" data-name="Tracé 53" d="M1777.4,4007.29s66.216,21.109,73.378-10.28" transform="translate(-1744.651 -3928.25)" fill="none" stroke="#030502" stroke-miterlimit="10" stroke-width="0.5"/>
    <path id="Tracé_54" data-name="Tracé 54" d="M1785.9,4016.151s27.414-.865,35.4-16.958" transform="translate(-1700.462 -3916.891)" fill="none" stroke="#030502" stroke-miterlimit="10" stroke-width="0.5"/>
    <path id="Tracé_55" data-name="Tracé 55" d="M1791.747,4016.318s15.236-1.5,17.666-15.7" transform="translate(-1670.036 -3909.475)" fill="none" stroke="#030502" stroke-miterlimit="10" stroke-width="0.5"/>
    <path id="Tracé_56" data-name="Tracé 56" d="M1794.888,4014.984s13.015-4.962,16.216-13.287" transform="translate(-1653.707 -3903.862)" fill="none" stroke="#030502" stroke-miterlimit="10" stroke-width="0.5"/>
    <path id="Tracé_57" data-name="Tracé 57" d="M1802.82,4004.215" transform="translate(-1612.454 -3890.779)" fill="none" stroke="#030502" stroke-miterlimit="10" stroke-width="0.5"/>
    <path id="Tracé_58" data-name="Tracé 58" d="M1814.88,3999.377l1.01,28.729a1.365,1.365,0,0,1-1.01,1.624,33.5,33.5,0,0,1-14.381,0" transform="translate(-1624.519 -3915.934)" fill="none" stroke="#030502" stroke-miterlimit="10" stroke-width="0.5"/>
  </g>
</svg>
