<svg xmlns="http://www.w3.org/2000/svg" width="187.021" height="211.229" viewBox="0 0 187.021 211.229">
  <g id="Groupe_81" data-name="Groupe 81" transform="translate(0.251 0.272)">
    <path id="Tracé_59" data-name="Tracé 59" d="M1776.4,4088.381s2.206-11.038,0-15.458-5.039-20.805,3.152-21.434,21.76,5.045,23.966,18.448,8.514,13.706,4.415,26.006a8.229,8.229,0,0,1-3.237,4.455c-6.776,4.487-19.783-2.879-19.783-2.879S1777.036,4094.366,1776.4,4088.381Z" transform="translate(-1774.081 -3891.384)" fill="none" stroke="#030502" stroke-miterlimit="10" stroke-width="0.5"/>
    <path id="Tracé_60" data-name="Tracé 60" d="M1782.272,4054.5s7.723,9.525-7.172,19.608" transform="translate(-1766.703 -3869.24)" fill="none" stroke="#030502" stroke-miterlimit="10" stroke-width="0.5"/>
    <path id="Tracé_61" data-name="Tracé 61" d="M1775.1,4192.066s46.9-.583,49.413-38.1,10.406-101.843,38.784-108.776,51.7-12.925,51.7-12.925,29-8.2,37.517,67.47-65.262,73.142-65.262,73.142-28.691,5.991-45.083,28.379-37.088,43.917-49.182,41.216" transform="translate(-1766.703 -4032)" fill="none" stroke="#030502" stroke-miterlimit="10" stroke-width="0.5"/>
    <path id="Tracé_62" data-name="Tracé 62" d="M1787.58,4033.168s34,1.373,45.032,37.308-1.613,67.029,2.668,84.434" transform="translate(-1676.435 -4023.564)" fill="none" stroke="#030502" stroke-miterlimit="10" stroke-width="0.5"/>
    <path id="Tracé_63" data-name="Tracé 63" d="M1780.395,4051.813s7.869,3.4,5.9,27.634" transform="translate(-1728.411 -3888.711)" fill="none" stroke="#030502" stroke-miterlimit="10" stroke-width="0.5"/>
    <ellipse id="Ellipse_1" data-name="Ellipse 1" cx="3.73" cy="3.73" rx="3.73" ry="3.73" transform="translate(103.689 105.615)" fill="none" stroke="#030502" stroke-miterlimit="10" stroke-width="0.5"/>
    <ellipse id="Ellipse_2" data-name="Ellipse 2" cx="3.73" cy="3.73" rx="3.73" ry="3.73" transform="translate(117.981 105.615)" fill="none" stroke="#030502" stroke-miterlimit="10" stroke-width="0.5"/>
    <ellipse id="Ellipse_3" data-name="Ellipse 3" cx="3.73" cy="3.73" rx="3.73" ry="3.73" transform="translate(139.631 116.546)" fill="none" stroke="#030502" stroke-miterlimit="10" stroke-width="0.5"/>
    <ellipse id="Ellipse_4" data-name="Ellipse 4" cx="3.73" cy="3.73" rx="3.73" ry="3.73" transform="translate(127.596 120.277)" fill="none" stroke="#030502" stroke-miterlimit="10" stroke-width="0.5"/>
    <ellipse id="Ellipse_5" data-name="Ellipse 5" cx="3.73" cy="3.73" rx="3.73" ry="3.73" transform="translate(114.252 122.168)" fill="none" stroke="#030502" stroke-miterlimit="10" stroke-width="0.5"/>
    <ellipse id="Ellipse_6" data-name="Ellipse 6" cx="3.73" cy="3.73" rx="3.73" ry="3.73" transform="translate(99.96 122.168)" fill="none" stroke="#030502" stroke-miterlimit="10" stroke-width="0.5"/>
    <ellipse id="Ellipse_7" data-name="Ellipse 7" cx="3.104" cy="3.104" rx="3.104" ry="3.104" transform="translate(111.774 90.532)" fill="none" stroke="#030502" stroke-miterlimit="10" stroke-width="0.5"/>
    <ellipse id="Ellipse_8" data-name="Ellipse 8" cx="3.73" cy="3.73" rx="3.73" ry="3.73" transform="translate(130.383 101.886)" fill="none" stroke="#030502" stroke-miterlimit="10" stroke-width="0.5"/>
    <ellipse id="Ellipse_9" data-name="Ellipse 9" cx="2.786" cy="2.786" rx="2.786" ry="2.786" transform="translate(124.81 90.85)" fill="none" stroke="#030502" stroke-miterlimit="10" stroke-width="0.5"/>
  </g>
</svg>
