<svg xmlns="http://www.w3.org/2000/svg" width="203.608" height="108.469" viewBox="0 0 203.608 108.469">
  <g id="Groupe_78" data-name="Groupe 78" transform="translate(0.243 0.166)">
    <line id="Ligne_29" data-name="Ligne 29" x1="3.16" y1="2.365" transform="translate(133.777 48.084)" fill="none" stroke="#030502" stroke-miterlimit="10" stroke-width="0.5"/>
    <path id="Tracé_95" data-name="Tracé 95" d="M1763.534,4225.211s7.122,5.592,6.581,11.178,2.587,5.873,2.587,5.873c6.952.535,7.5,1.762,7.5,1.762a10.773,10.773,0,0,0,8.45,4.1c6.272-2.6,11.726-1.912,17.044,5.992s15-.273,22.226,1.094,20.182-3.268,26.043-2.725,15.4-4.5,19.633-4.361c4.229.127,5.722-3.137,8.587-3.408s6.815-3.957,7.636-6.141,4.91-2.582,6.41-7.9,4.633-7.094,4.771-8.867c.1-1.318-1.3-6.924-3.937-10.445a7.559,7.559,0,0,0-3.155-2.648c-4.633-1.768-5.724-8.857-17.724-14.588s-20.858-5.412-20.858-5.412c-18.679,1.947-21.271.1-24.68-1.125s-11.182,1.361-14.317,2.047-14.312.406-16.224.811-3.408,5.453-12.546,4.641-12.95,5.863-14.721,8.039-7.363,2.457-8.259,4.906a85.494,85.494,0,0,0-2.513,9.826c-.272,1.631,2.591,8.717,1.091,17.176s3.95,11.049,3.95,11.049,2.323,3.541,4.367,7.227,13.225,4.627,19.088,9.129,17.044,2.725,19.771,3.684,11.859,5.6,22.766,3.141,24.683-.281,27.27-2.863c2.594-2.6,10.772-1.5,14.45-3.961s9.548-4.5,13.5-7.084,8.045-14.049,11.319-16.775a14.425,14.425,0,0,0,4.362-14.455c-1.5-6.41-4.109-11.127-5.286-12.053" transform="translate(-1762.052 -4161.873)" fill="none" stroke="#030502" stroke-miterlimit="10" stroke-width="0.5"/>
    <path id="Tracé_96" data-name="Tracé 96" d="M1764.841,4226.891s20.047-16.705,20.388-18.957,4.02-3.537,5.794-5.918,5.591-2.529,5.793-3.891,3.408-1.434,4.569-2.594,2.655-.885,4.155-2.391c1.5-1.488,6.2-5.107,6.957-4.5s.68,1.566-.34,2.449-1.164,2.934-2.595,3.553a21.766,21.766,0,0,0-8.247,5.584,10.991,10.991,0,0,1-4.159,1.436s-1.565.275-1.905,2.8-1.64,3.4-3.955,3.268-3.548,1.566-4.979,3.947-4.839,3.148-4.839,3.148-1.77.531-1.707,3.191-13.561,8.869-13.561,8.869S1764.653,4227.682,1764.841,4226.891Z" transform="translate(-1751.124 -4156.67)" fill="none" stroke="#030502" stroke-miterlimit="10" stroke-width="0.5"/>
    <path id="Tracé_97" data-name="Tracé 97" d="M1770.7,4237.777s-2.762-1.627,1.94-3.879a5.921,5.921,0,0,1,3.685-4.732c3.373-1.3,9-8.561,11.655-8.359s4.722-3.68,5.072-5.518,2.392-1.33,5.667-3.275,2.962-6.439,7.773-7.67,4.6-6.437,7.154-7.668,3.784-3.168,7.567-5.727,6.238-2.863,6.238-2.863l-21.579,21.168s-2.1,1.02-3.506,6.441a8.4,8.4,0,0,1-3.7,2.354c-2.716,1.025-2.9,4.086-5.62,5.416s-2.108,3.787-5.379,3.787-2.76,2.357-6.035,2.865-3.781,2.648-5.828,4.289A46.436,46.436,0,0,1,1770.7,4237.777Z" transform="translate(-1731.174 -4158.593)" fill="none" stroke="#030502" stroke-miterlimit="10" stroke-width="0.5"/>
    <path id="Tracé_98" data-name="Tracé 98" d="M1777.407,4230.008s17.892-14.623,19.227-20.859,2.553.1,8.382-7.664a9.133,9.133,0,0,0,3.477-2.969s5.117-1.062,5.216-1.861,3.477-1.418,5.319-3.258,4.193-3.174,5.318-2.65c1.121.5-1.945,1.832-3.073,3.67s-8.38,8.49-11.348,9-2.657,5.625-5.217,6.238-3.067-2.039-7.873,4.91a4.873,4.873,0,0,1-1.432,2.152c-.919.605-3.476,1.02-4.5,4.91s-10.771,8.381-10.771,8.381S1777.268,4231.205,1777.407,4230.008Z" transform="translate(-1701.582 -4148.57)" fill="none" stroke="#030502" stroke-miterlimit="10" stroke-width="0.5"/>
    <path id="Tracé_99" data-name="Tracé 99" d="M1779.168,4209.721s-1.649-5.785,2.951-7.73,9.51-10.84,12.17-11.555,23.11-8.18,28.119-8.08,12.475,2.459,17.485.41,12.479,1.436,15.442.916c2.968-.5,8.691-1.326,14.011,3.178,0,0,2.149,2.039,9.507,1.631s9.407,9,12.58,8.8,8.386,7.168,3.984,12.434-6.337,5.648-9.4,14.457-16.257,4.482-21.682,7.2-8.075,1.705-10.528,3.744-18.775,1.326-18.775,1.326" transform="translate(-1695.762 -4182.114)" fill="none" stroke="#030502" stroke-miterlimit="10" stroke-width="0.5"/>
    <path id="Tracé_100" data-name="Tracé 100" d="M1790.85,4234.35s12.335,2.859,19.386-1.439a14.409,14.409,0,0,1,4.911-1.119c2.349,0,6.749.611,10.326-1.33s7.974-6.031,12.578-6.238,4.395-4.709,6.034-6.955,4.911-2.662,5.884-5.014-.667-16.463,1.07-18.1-.271-6.717-1.07-7.869" transform="translate(-1648.617 -4165.691)" fill="none" stroke="#030502" stroke-miterlimit="10" stroke-width="0.5"/>
    <path id="Tracé_101" data-name="Tracé 101" d="M1821.073,4219.471a38.574,38.574,0,0,1-11.927-8.525s-4.911-3.953-5.52-5.93-4.158-3.07-5.048-3.348-2.249.586-3.541-4.541c0,0-.82-1.176-3.206-1.176s-4.772-5.324-7.774-6.686c0,0-.683-.336-1.773-3.172s1.638-.441,2.324.379,5.587,5.1,6.611,4.91,4.29,3.408,5.313,3.479,3.017,4.271,5.023,4.113,3.362,2.139,3.294,3.127c-.069,1,10.979,13.865,14.179,14.73S1822.506,4219.4,1821.073,4219.471Z" transform="translate(-1683.351 -4171.741)" fill="none" stroke="#030502" stroke-miterlimit="10" stroke-width="0.5"/>
    <path id="Tracé_102" data-name="Tracé 102" d="M1805.393,4201.57l-19.169-18.486s.34-1.219,4.089.684,9.887,6.688,12.2,11.529a3.465,3.465,0,0,0,3.207,1.906c2.314-.064,3,5.395,4.77,5.8s6.613.529,7.364,4.045,2.452,3.795,3.886,3.795,3.406,1.3,6.954,5.318a16.056,16.056,0,0,0,2.658,2.047,3.47,3.47,0,0,1,2.044,2.582c.34,1.5,3.339,1.986,2.934,3.008s-.48,2.791-4.638-.414-4.09-4.494-5.793-4.363-1.773-2.449-3.546-2.594-1.707.891-4.839-2.518-3.137-3.551-6.546-5.994c0,0-3.886-1.746-4.226-2.715S1806.028,4201.979,1805.393,4201.57Z" transform="translate(-1666.839 -4179.81)" fill="none" stroke="#030502" stroke-miterlimit="10" stroke-width="0.5"/>
    <path id="Tracé_103" data-name="Tracé 103" d="M1831.538,4215.922c-.22.131-9.154-4.955-11.913-8.482s-4.293-2.264-5.315-4.148-.716-3.582-4.6-4.6-2.71-4.709-5.625-5.475-6.084-4.346-7.873-5.361-4.242-4.557-3.527-4.607,7.873,5.412,8.9,5.879,3.069-.467,7.519,3.842c4.444,4.283,2.608,3.26,4.547,3.516s1.021,4.529,4.5,6.527c3.478,2.021,9.376,9.088,9.835,9.209S1831.947,4215.686,1831.538,4215.922Z" transform="translate(-1641.901 -4177.634)" fill="none" stroke="#030502" stroke-miterlimit="10" stroke-width="0.5"/>
  </g>
</svg>
