<svg xmlns="http://www.w3.org/2000/svg" width="205.391" height="272.211" viewBox="0 0 205.391 272.211">
  <g id="Groupe_79" data-name="Groupe 79" transform="translate(2.031 0.248)">
    <path id="Tracé_104" data-name="Tracé 104" d="M1883.3-1267.258s-8.675-7.82,0-15.331,13.472-3.175,13.782-1.858.772,11.924-5.42,15.331S1883.3-1267.258,1883.3-1267.258Z" transform="translate(-1708.911 1481.908)" fill="none" stroke="#161615" stroke-miterlimit="10" stroke-width="0.5"/>
    <path id="Tracé_105" data-name="Tracé 105" d="M1889.776-1292.714s-11.24-15.308-1.43-24.189a19.045,19.045,0,0,0,5.988-9.085c1.756-5.885,14.25-8.467,14.972-4.025s2.58,21.268,1.136,23.538c0,0-1.281,3.415-3.687,4.907" transform="translate(-1707.869 1472.238)" fill="none" stroke="#161615" stroke-miterlimit="10" stroke-width="0.5"/>
    <path id="Tracé_106" data-name="Tracé 106" d="M1875.94-1327.564s-25.919-1.629-27.365-16.806c0,0,.415-11.67,9.4-18.482s14.042-6.5,15.384-8.88,26.635,15.027,27.566,20.936" transform="translate(-1715.49 1463.775)" fill="none" stroke="#161615" stroke-miterlimit="10" stroke-width="0.5"/>
    <path id="Tracé_107" data-name="Tracé 107" d="M1885.209-1266.656s4.388,48.021-8.826,54.627c0,0-8.978-26.976,5.319-58.763,0,0-7.927,2.531-7.269-7.962s2.054-10.532,3.1-9.137,6.719,5.347,8.644,4.339" transform="translate(-1710.156 1481.556)" fill="none" stroke="#161615" stroke-miterlimit="10" stroke-width="0.5"/>
    <path id="Tracé_108" data-name="Tracé 108" d="M1876.97-1299.313s-7.331-9.59-3.615-13c0,0,8.979-.575,11.667-3.12s1.869-3,1.869-3" transform="translate(-1710.434 1475.183)" fill="none" stroke="#161615" stroke-miterlimit="10" stroke-width="0.5"/>
    <path id="Tracé_109" data-name="Tracé 109" d="M1843.009-1334.46s-22.1-3.653-24.988-14.287c0,0,9.376-7.053,11.489-11.872" transform="translate(-1722.003 1466.189)" fill="none" stroke="#161615" stroke-miterlimit="10" stroke-width="0.5"/>
    <ellipse id="Ellipse_12" data-name="Ellipse 12" cx="1.394" cy="1.394" rx="1.394" ry="1.394" transform="translate(37.478 44.137)" fill="none" stroke="#161615" stroke-miterlimit="10" stroke-width="0.5"/>
    <path id="Tracé_110" data-name="Tracé 110" d="M1767.367-1414.339s-14.971-14.422-23.643-13.907c0,0,9.993-4.155,22.549,7.991" transform="translate(-1737.838 1451.629)" fill="none" stroke="#161615" stroke-miterlimit="10" stroke-width="0.5"/>
    <path id="Tracé_111" data-name="Tracé 111" d="M1770.271-1395.707s-10.953-25.474-31.4-27.8c0,0,16.153-2.173,30.764,18.736" transform="translate(-1738.872 1452.772)" fill="none" stroke="#161615" stroke-miterlimit="10" stroke-width="0.5"/>
    <path id="Tracé_112" data-name="Tracé 112" d="M1784.613-1364.866s-8.114,4.786-24.22,8.037a342.52,342.52,0,0,1-5.5,53.277s3.278-50.849,1.214-55.807c0,0,22.11-6.54,24.426-10.083" transform="translate(-1735.456 1464.308)" fill="none" stroke="#161615" stroke-miterlimit="10" stroke-width="0.5"/>
    <path id="Tracé_113" data-name="Tracé 113" d="M1779.471-1372.29s-14.835,6.275-24.334,9.064c0,0-4.129,46.976-10.222,50.694,0,0,7.95-27.464,7.33-53.38,0,0,20.3-7.157,24.5-11.063" transform="translate(-1737.585 1462.704)" fill="none" stroke="#161615" stroke-miterlimit="10" stroke-width="0.5"/>
    <path id="Tracé_114" data-name="Tracé 114" d="M1791.27-1360.28s-13.453,7.745-25.948,7.536c0,0-1.136,50.9-4.748,58.749a266.075,266.075,0,0,0,7.968-55.858s23.3-1.043,31.1-5.632" transform="translate(-1734.247 1466.261)" fill="none" stroke="#161615" stroke-miterlimit="10" stroke-width="0.5"/>
    <path id="Tracé_115" data-name="Tracé 115" d="M1885.7-1280.8s-1.994-12.152,1.43-15.25,6.627-4.026,8.9-5.472,6.5-6.3,9.186-5.988,1.964,3.923,1.964,3.923-5.575,19.2-8.467,19.926l-4.187,2.1" transform="translate(-1707.701 1477.508)" fill="none" stroke="#161615" stroke-miterlimit="10" stroke-width="0.5"/>
    <path id="Tracé_116" data-name="Tracé 116" d="M1889.115-1309.705s-20.614-10.3-18.032-21.141,4.644-10.839,5.575-13.11,6.743-7.641,12.457-8.365,5.094-3.406,8.087-1.55,12.7,11.023,14.353,18.108c0,0,2.166,6.568,0,9.3" transform="translate(-1710.74 1467.491)" fill="none" stroke="#161615" stroke-miterlimit="10" stroke-width="0.5"/>
    <path id="Tracé_117" data-name="Tracé 117" d="M1865.925-1312.568s-19.67-2.915-24.935-16.79c0,0,11.976-7.989,12.08-13.151,0,0-28.7-2.684-25.3-14.042a50.208,50.208,0,0,0,4.647-12.289c1.136-5.887,9.189-16.209,12.286-15.693s29.22,7.745,33.144,15.486" transform="translate(-1719.984 1461.088)" fill="none" stroke="#161615" stroke-miterlimit="10" stroke-width="0.5"/>
    <path id="Tracé_118" data-name="Tracé 118" d="M1876.284-1285.494s-2.3-12.083-1.212-14.793,1.808-2.374,1.808-2.374,11.925,5.376,14.93,3.64" transform="translate(-1709.903 1478.542)" fill="none" stroke="#161615" stroke-miterlimit="10" stroke-width="0.5"/>
    <path id="Tracé_119" data-name="Tracé 119" d="M1876.153-1308.7s-14.816.257-16.983-14.352c0,0,12.209-6.676,14.179-12.31" transform="translate(-1713.232 1471.574)" fill="none" stroke="#161615" stroke-miterlimit="10" stroke-width="0.5"/>
    <path id="Tracé_120" data-name="Tracé 120" d="M1876.241-1236.557c-4.906,13.733-15.022,23.438-15.022,23.438-5.267-20.442,18.676-61.1,18.676-61.1" transform="translate(-1712.955 1484.606)" fill="none" stroke="#161615" stroke-miterlimit="10" stroke-width="0.5"/>
    <path id="Tracé_121" data-name="Tracé 121" d="M1880.745-1275.639s-34.54,21.55-32.062,51.259c0,0,10.738-3.1,17.348-12.6" transform="translate(-1715.495 1484.303)" fill="none" stroke="#161615" stroke-miterlimit="10" stroke-width="0.5"/>
    <path id="Tracé_122" data-name="Tracé 122" d="M1834.892-1330.2s-58.694,2.736-64.581-59.522c0,0-1.238-28.962-5.728-33.3s-25.711-22.922-25.711-22.922.466-3.1,2.633-.928,48.871,29.27,62.767,40.267,38.724,23.54,43.111,25.089,15.8,9.4,16.211,10.427" transform="translate(-1738.872 1447.641)" fill="none" stroke="#161615" stroke-miterlimit="10" stroke-width="0.5"/>
    <ellipse id="Ellipse_13" data-name="Ellipse 13" cx="4.104" cy="4.104" rx="4.104" ry="4.104" transform="translate(34.769 41.426)" fill="none" stroke="#161615" stroke-miterlimit="10" stroke-width="0.5"/>
  </g>
</svg>
