<svg xmlns="http://www.w3.org/2000/svg" width="34.564" height="18.568" viewBox="0 0 34.564 18.568">
  <g id="Groupe_60" data-name="Groupe 60" transform="translate(0.249 0.233)">
    <line id="Ligne_29" data-name="Ligne 29" x1="0.529" y1="0.396" transform="translate(22.388 8.049)" fill="none" stroke="#030502" stroke-miterlimit="10" stroke-width="0.5"/>
    <path id="Tracé_95" data-name="Tracé 95" d="M1762.3,4193.607s1.192.936,1.1,1.871.433.983.433.983c1.163.089,1.255.295,1.255.295a1.8,1.8,0,0,0,1.414.686c1.05-.435,1.962-.32,2.852,1s2.511-.046,3.72.183,3.377-.547,4.359-.456,2.578-.754,3.286-.73.958-.525,1.437-.57a2.02,2.02,0,0,0,1.278-1.028c.137-.365.822-.432,1.073-1.323s.775-1.187.8-1.484a3.8,3.8,0,0,0-.659-1.748,1.262,1.262,0,0,0-.528-.443c-.775-.3-.958-1.482-2.966-2.441a8.273,8.273,0,0,0-3.491-.906c-3.126.326-3.56.017-4.13-.188a6.088,6.088,0,0,0-2.4.343c-.525.113-2.4.068-2.715.136s-.57.913-2.1.776a2.632,2.632,0,0,0-2.464,1.346c-.3.366-1.232.411-1.382.821a14.324,14.324,0,0,0-.42,1.645,9.171,9.171,0,0,1,.182,2.875,1.6,1.6,0,0,0,.661,1.849s.389.593.731,1.209,2.213.774,3.195,1.528,2.852.456,3.309.617a6.31,6.31,0,0,0,3.81.525c1.825-.411,4.131-.047,4.564-.479s1.8-.251,2.418-.663,1.6-.753,2.259-1.186,1.346-2.351,1.894-2.808a2.414,2.414,0,0,0,.73-2.419,4.7,4.7,0,0,0-.885-2.017" transform="translate(-1762.052 -4183.005)" fill="none" stroke="#030502" stroke-miterlimit="10" stroke-width="0.5"/>
    <path id="Tracé_96" data-name="Tracé 96" d="M1764.828,4194.988s3.355-2.8,3.412-3.173.673-.592.97-.99.936-.423.969-.651.57-.24.765-.434.444-.148.7-.4,1.038-.855,1.164-.752.114.262-.057.41-.195.491-.434.595a3.64,3.64,0,0,0-1.38.935,1.84,1.84,0,0,1-.7.24s-.262.046-.319.469a.548.548,0,0,1-.662.547c-.388-.023-.594.262-.833.661a1.406,1.406,0,0,1-.81.527s-.3.089-.286.534-2.269,1.484-2.269,1.484S1764.8,4195.121,1764.828,4194.988Z" transform="translate(-1762.533 -4183.234)" fill="none" stroke="#030502" stroke-miterlimit="10" stroke-width="0.5"/>
    <path id="Tracé_97" data-name="Tracé 97" d="M1770.025,4196.4s-.462-.272.325-.649a.991.991,0,0,1,.617-.792c.564-.218,1.506-1.433,1.951-1.4s.79-.616.849-.923.4-.223.948-.548.5-1.078,1.3-1.284.769-1.077,1.2-1.283a15.3,15.3,0,0,0,1.266-.958,2.728,2.728,0,0,1,1.044-.479l-3.611,3.542s-.352.171-.587,1.078a1.408,1.408,0,0,1-.618.394c-.455.171-.486.684-.941.906s-.353.634-.9.634-.462.395-1.01.479-.633.443-.975.718A7.768,7.768,0,0,1,1770.025,4196.4Z" transform="translate(-1763.411 -4183.148)" fill="none" stroke="#030502" stroke-miterlimit="10" stroke-width="0.5"/>
    <path id="Tracé_98" data-name="Tracé 98" d="M1777.4,4197.221s2.994-2.447,3.218-3.491.427.016,1.4-1.283a1.527,1.527,0,0,0,.582-.5s.856-.178.873-.312.582-.237.89-.545.7-.531.89-.444-.326.307-.514.614a5.4,5.4,0,0,1-1.9,1.506c-.5.087-.445.941-.873,1.044s-.513-.341-1.318.822a.816.816,0,0,1-.24.36,1.14,1.14,0,0,0-.753.822c-.171.649-1.8,1.4-1.8,1.4S1777.38,4197.422,1777.4,4197.221Z" transform="translate(-1764.714 -4183.59)" fill="none" stroke="#030502" stroke-miterlimit="10" stroke-width="0.5"/>
    <path id="Tracé_99" data-name="Tracé 99" d="M1778.929,4186.735s-.276-.968.494-1.294,1.592-1.814,2.037-1.934a33.373,33.373,0,0,1,4.706-1.353c.839.018,2.088.412,2.926.069s2.089.24,2.584.153a2.7,2.7,0,0,1,2.345.532s.36.341,1.591.273,1.574,1.506,2.105,1.472a1.333,1.333,0,0,1,.667,2.081,5.49,5.49,0,0,0-1.574,2.419c-.513,1.474-2.721.75-3.629,1.206s-1.351.285-1.762.626-3.142.222-3.142.222" transform="translate(-1764.971 -4182.113)" fill="none" stroke="#030502" stroke-miterlimit="10" stroke-width="0.5"/>
    <path id="Tracé_100" data-name="Tracé 100" d="M1790.85,4194.329a5.288,5.288,0,0,0,3.244-.241,2.409,2.409,0,0,1,.822-.187,3.435,3.435,0,0,0,1.728-.223c.6-.326,1.334-1.009,2.1-1.044s.736-.788,1.01-1.164.822-.445.985-.839-.112-2.755.179-3.029-.045-1.124-.179-1.317" transform="translate(-1767.047 -4182.837)" fill="none" stroke="#030502" stroke-miterlimit="10" stroke-width="0.5"/>
    <path id="Tracé_101" data-name="Tracé 101" d="M1788.566,4190.56a6.452,6.452,0,0,1-2-1.427s-.822-.662-.924-.992-.7-.514-.845-.561-.376.1-.593-.76a.642.642,0,0,0-.537-.2c-.4,0-.8-.891-1.3-1.119,0,0-.114-.056-.3-.531s.274-.074.389.063.935.854,1.107.822.718.57.889.582.5.715.841.688a.576.576,0,0,1,.551.523,9.532,9.532,0,0,0,2.373,2.465C1788.76,4190.263,1788.805,4190.548,1788.566,4190.56Z" transform="translate(-1765.517 -4182.57)" fill="none" stroke="#030502" stroke-miterlimit="10" stroke-width="0.5"/>
    <path id="Tracé_102" data-name="Tracé 102" d="M1789.432,4185.858l-3.208-3.094s.057-.2.684.114a5.142,5.142,0,0,1,2.042,1.93.58.58,0,0,0,.537.319c.387-.011.5.9.8.971s1.107.088,1.232.677.41.635.65.635.57.217,1.164.89a2.684,2.684,0,0,0,.445.342.582.582,0,0,1,.342.432c.057.25.559.333.491.5s-.08.467-.776-.069-.685-.752-.969-.73-.3-.41-.594-.434-.286.149-.81-.421a4.913,4.913,0,0,0-1.1-1s-.65-.292-.707-.454S1789.538,4185.926,1789.432,4185.858Z" transform="translate(-1766.244 -4182.214)" fill="none" stroke="#030502" stroke-miterlimit="10" stroke-width="0.5"/>
    <path id="Tracé_103" data-name="Tracé 103" d="M1799.079,4188.719a7.6,7.6,0,0,1-1.994-1.419c-.463-.592-.719-.379-.89-.694s-.12-.6-.77-.77-.454-.788-.942-.916-1.018-.728-1.318-.9-.71-.763-.59-.771,1.318.906,1.489.984a1.823,1.823,0,0,1,1.258.643c.744.717.437.545.761.588s.171.758.753,1.092a14.472,14.472,0,0,1,1.646,1.541C1798.559,4188.121,1799.147,4188.68,1799.079,4188.719Z" transform="translate(-1767.342 -4182.31)" fill="none" stroke="#030502" stroke-miterlimit="10" stroke-width="0.5"/>
  </g>
</svg>
