<svg xmlns="http://www.w3.org/2000/svg" xmlns:xlink="http://www.w3.org/1999/xlink" viewBox="0 0 6800.33 3200.35"><defs><style>.cls-1,.cls-10,.cls-11,.cls-12,.cls-13,.cls-14,.cls-2,.cls-3,.cls-4,.cls-5,.cls-8{fill:none;}.cls-1{stroke:#f6e81f;}.cls-1,.cls-10,.cls-11,.cls-12,.cls-13,.cls-14,.cls-2,.cls-3,.cls-4,.cls-5,.cls-7,.cls-8{stroke-miterlimit:10;}.cls-2,.cls-7{stroke:#1d1d1b;}.cls-3{stroke:#ead61f;}.cls-4{stroke:#000;}.cls-5{stroke:#5eb130;}.cls-6,.cls-7{fill:#1d1d1b;}.cls-8{stroke:#038c38;}.cls-9{fill:#5eb130;}.cls-10{stroke:#14a338;}.cls-11{stroke:#4eae33;}.cls-12{stroke:#3083c5;}.cls-13{stroke:#00a54d;}.cls-14{stroke:#69b42d;}</style></defs><title>icone</title><g id="Calque_1" data-name="Calque 1"><image width="604" height="604" transform="translate(0 1857.69) scale(2.22)" xlink:href="poulet.jpg"/><image width="602" height="601" transform="translate(1286.02 1739) scale(0.75)" xlink:href="steak-hache.jpg"/><image width="1300" height="1300" transform="translate(1460.25 2423.55) scale(0.19)" xlink:href="181803925-vecteur-d-ic%C3%B4ne-de-couleur-de-saumon-steak-signe-de-steak-de-saumon-illustration-de-symbole.jpg"/><image width="1000" height="1080" transform="translate(5539.02 1548)" xlink:href="vegetable-set-icon-in-color-vector-17336564.jpg"/><image width="1024" height="1024" transform="translate(6174.25 1251.94) scale(0.24)" xlink:href="istockphoto-1256188089-1024x1024.jpg"/><image width="960" height="720" transform="translate(5458.34 437.22) scale(1.07 1.03)" xlink:href="vegetable_icons_set_vector_176053.jpg"/><image width="612" height="612" transform="translate(1801.3 260.28) scale(0.43)" xlink:href="istockphoto-534048793-612x612.jpg"/></g><g id="Calque_2" data-name="Calque 2"><path class="cls-1" d="M729.64,736.21c-.74-.21-42.13-12.25-53.87-23.74s-8.68-18.38-8.68-18.38,3.31-5.62,19.4,4.08,51.06,32.68,58.21,24.77-13.27-22.73-13.27-22.73S665.3,635.87,615.77,644.3s-40.34,38.81-40.34,38.81,1,39.06,108.25,56.93c0,0,22.72,4.6,32.94,7.92s16.59-3.07,16.59-3.07S735.47,737.91,729.64,736.21Z" transform="translate(925.02 1842.11)"/><path class="cls-2" d="M977.16,736.21C976.43,736,935,724,923.29,712.47s-8.68-18.38-8.68-18.38,3.32-5.62,19.4,4.08,51.07,32.68,58.22,24.77S979,700.21,979,700.21s-66.13-64.34-115.66-55.91S823,683.11,823,683.11,824,722.17,931.2,740c0,0,22.73,4.6,32.94,7.92s16.6-3.07,16.6-3.07S983,737.91,977.16,736.21Z" transform="translate(925.02 1842.11)"/><path class="cls-3" d="M123.51,948.13s1.79-8.94,0-12.51-4.08-16.85,2.55-17.36,17.62,4.08,19.41,14.93,6.89,11.11,3.57,21.07a6.55,6.55,0,0,1-2.62,3.6c-5.49,3.64-16-2.33-16-2.33S124,953,123.51,948.13Z" transform="translate(925.02 1842.11)"/><path class="cls-3" d="M134.23,938.63s6.26,7.71-5.8,15.88" transform="translate(925.02 1842.11)"/><path class="cls-3" d="M128.43,918.22s38-.48,40-30.86,8.42-82.47,31.4-88.08,41.87-10.47,41.87-10.47,23.49-6.64,30.39,54.64-52.85,59.23-52.85,59.23-23.24,4.85-36.52,23-30,35.56-39.83,33.38" transform="translate(925.02 1842.11)"/><path class="cls-3" d="M211.64,796.38s27.53,1.11,36.47,30.22-1.31,54.27,2.15,68.37" transform="translate(925.02 1842.11)"/><path class="cls-4" d="M1204.94,1045.87s1.79-8.93,0-12.51-4.09-16.85,2.55-17.36,17.62,4.09,19.41,14.94,6.89,11.1,3.57,21.06a6.71,6.71,0,0,1-2.62,3.61c-5.49,3.63-16-2.33-16-2.33S1205.45,1050.73,1204.94,1045.87Z" transform="translate(925.02 1842.11)"/><path class="cls-4" d="M1215.66,1036.37s6.26,7.72-5.8,15.89" transform="translate(925.02 1842.11)"/><path class="cls-4" d="M1209.86,1016s38-.47,40-30.85,8.43-82.47,31.41-88.09,41.87-10.47,41.87-10.47,23.49-6.63,30.38,54.64-52.85,59.24-52.85,59.24-23.23,4.85-36.51,23-30,35.56-39.83,33.37" transform="translate(925.02 1842.11)"/><path class="cls-4" d="M1293.07,894.12s27.53,1.12,36.46,30.22-1.3,54.27,2.16,68.37" transform="translate(925.02 1842.11)"/><path class="cls-5" d="M163.72,920.68s6.38,2.76,4.79,22.38" transform="translate(925.02 1842.11)"/><circle class="cls-6" cx="1133.64" cy="2719.26" r="3.02"/><circle class="cls-6" cx="1145.21" cy="2719.26" r="3.02"/><circle class="cls-6" cx="1162.74" cy="2728.11" r="3.02"/><circle class="cls-6" cx="1153" cy="2731.13" r="3.02"/><circle class="cls-6" cx="1139.68" cy="2731.98" r="3.02"/><circle class="cls-6" cx="1130.62" cy="2732.66" r="3.02"/><circle class="cls-6" cx="1139.68" cy="2706.54" r="3.02"/><circle class="cls-6" cx="1155.25" cy="2716.24" r="3.02"/><circle class="cls-6" cx="1149.98" cy="2706.54" r="3.02"/><path class="cls-2" d="M1894.18,120.88s1.79-8.94,0-12.51-4.09-16.85,2.55-17.36,17.62,4.08,19.41,14.93,6.89,11.11,3.57,21.07a6.66,6.66,0,0,1-2.62,3.61c-5.49,3.63-16-2.34-16-2.34S1894.69,125.73,1894.18,120.88Z" transform="translate(925.02 1842.11)"/><path class="cls-2" d="M1904.9,111.38s6.26,7.71-5.8,15.88" transform="translate(925.02 1842.11)"/><path class="cls-2" d="M1899.1,91s38-.47,40-30.86,8.42-82.47,31.4-88.08,41.87-10.47,41.87-10.47,23.49-6.64,30.39,54.64-52.86,59.23-52.86,59.23-23.23,4.85-36.51,23-30,35.57-39.83,33.38" transform="translate(925.02 1842.11)"/><path class="cls-2" d="M1982.31-30.87s27.53,1.11,36.47,30.22-1.31,54.27,2.15,68.37" transform="translate(925.02 1842.11)"/><path class="cls-2" d="M1934.39,93.43s6.37,2.76,4.78,22.38" transform="translate(925.02 1842.11)"/><circle class="cls-7" cx="2904.3" cy="1892.01" r="3.02"/><circle class="cls-7" cx="2915.88" cy="1892.01" r="3.02"/><circle class="cls-7" cx="2933.41" cy="1900.86" r="3.02"/><circle class="cls-7" cx="2923.67" cy="1903.88" r="3.02"/><circle class="cls-7" cx="2912.86" cy="1905.41" r="3.02"/><circle class="cls-7" cx="2901.28" cy="1905.41" r="3.02"/><circle class="cls-7" cx="2910.35" cy="1879.29" r="2.51"/><circle class="cls-7" cx="2925.92" cy="1888.99" r="3.02"/><circle class="cls-7" cx="2920.65" cy="1879.29" r="2.26"/><path class="cls-8" d="M5300.53-390.09s79.49-47.31,91.75-46,12.76,1.53,15.32,4.76,6.29,18.73-8.34,24.17-78.3,19.24-95,22C5304.28-385.15,5294-384.43,5300.53-390.09Z" transform="translate(925.02 1842.11)"/><path class="cls-8" d="M5333.26-408.87s-37.66-8.28-20.47-45.22l9.78-16.17s10.39,2.13,15.58-2.63c0,0,18.72,11.66,22.81,21.36,0,0,7.57,12.84,1.06,27.31" transform="translate(925.02 1842.11)"/><path class="cls-8" d="M5249.21-724.41s79.49-47.32,91.75-46,12.76,1.54,15.32,4.77,6.29,18.72-8.34,24.17-78.3,19.23-95,22C5253-719.47,5242.68-718.75,5249.21-724.41Z" transform="translate(925.02 1842.11)"/><path class="cls-8" d="M5281.94-743.19s-37.66-8.28-20.47-45.22l9.79-16.17s10.38,2.13,15.57-2.64c0,0,18.72,11.66,22.81,21.37,0,0,7.57,12.84,1.06,27.31" transform="translate(925.02 1842.11)"/><path class="cls-2" d="M5709-500.46s79.49-47.32,91.75-46,12.76,1.53,15.32,4.77,6.3,18.72-8.34,24.17-78.3,19.23-95,22C5712.7-495.53,5702.42-494.8,5709-500.46Z" transform="translate(925.02 1842.11)"/><path class="cls-2" d="M5741.68-519.24s-37.66-8.29-20.47-45.22l9.79-16.17s10.38,2.13,15.57-2.64c0,0,18.72,11.66,22.81,21.36,0,0,7.57,12.84,1.06,27.32" transform="translate(925.02 1842.11)"/><path class="cls-5" d="M1096.28-1383.32s-7.15-6.45,0-12.64,11.1-2.61,11.36-1.53.64,9.83-4.47,12.64S1096.28-1383.32,1096.28-1383.32Z" transform="translate(925.02 1842.11)"/><path class="cls-5" d="M1102.48-1412.28s-9.27-12.61-1.18-19.93a15.69,15.69,0,0,0,4.93-7.49c1.45-4.85,11.75-7,12.34-3.32s2.13,17.53.94,19.4a9.17,9.17,0,0,1-3,4" transform="translate(925.02 1842.11)"/><path class="cls-5" d="M1084.79-1448s-21.36-1.34-22.56-13.85c0,0,.34-9.62,7.75-15.23s11.57-5.37,12.68-7.32,22,12.38,22.72,17.25" transform="translate(925.02 1842.11)"/><path class="cls-5" d="M1096.83-1383.11s3.62,39.58-7.28,45c0,0-7.4-22.23,4.39-48.43,0,0-6.54,2.08-6-6.57s1.69-8.68,2.55-7.53,5.54,4.41,7.13,3.58" transform="translate(925.02 1842.11)"/><path class="cls-5" d="M1089.81-1415.29s-6-7.9-3-10.71c0,0,7.4-.47,9.62-2.57S1098-1431,1098-1431" transform="translate(925.02 1842.11)"/><path class="cls-5" d="M1052.28-1451.67s-18.22-3-20.6-11.78c0,0,7.73-5.81,9.47-9.78" transform="translate(925.02 1842.11)"/><circle class="cls-9" cx="1909.59" cy="319.39" r="1.15"/><path class="cls-5" d="M1496.78-1585.18s-7.15-6.44,0-12.64,11.1-2.61,11.36-1.53.64,9.83-4.47,12.64S1496.78-1585.18,1496.78-1585.18Z" transform="translate(925.02 1842.11)"/><path class="cls-5" d="M1503-1614.13s-9.27-12.62-1.18-19.94a15.69,15.69,0,0,0,4.93-7.49c1.45-4.85,11.75-7,12.34-3.32s2.13,17.53.94,19.4a9.26,9.26,0,0,1-3,4" transform="translate(925.02 1842.11)"/><path class="cls-5" d="M1485.29-1649.84s-21.37-1.34-22.56-13.85c0,0,.34-9.61,7.75-15.23s11.57-5.36,12.68-7.32,22,12.38,22.72,17.26" transform="translate(925.02 1842.11)"/><path class="cls-5" d="M1497.33-1585s3.62,39.58-7.28,45c0,0-7.4-22.24,4.39-48.44,0,0-6.54,2.09-6-6.56s1.69-8.68,2.55-7.54,5.54,4.41,7.12,3.58" transform="translate(925.02 1842.11)"/><path class="cls-5" d="M1490.31-1617.15s-6-7.9-3-10.71c0,0,7.4-.47,9.62-2.57s1.54-2.47,1.54-2.47" transform="translate(925.02 1842.11)"/><path class="cls-5" d="M1452.78-1653.53s-18.22-3-20.6-11.77c0,0,7.73-5.82,9.47-9.79" transform="translate(925.02 1842.11)"/><circle class="cls-9" cx="2310.09" cy="117.53" r="1.15"/><path class="cls-5" d="M976.87-1529.51s-12.34-11.89-19.49-11.47c0,0,8.24-3.42,18.59,6.59" transform="translate(925.02 1842.11)"/><path class="cls-5" d="M978.41-1513.21s-9-21-25.88-22.92c0,0,13.32-1.79,25.36,15.45" transform="translate(925.02 1842.11)"/><path class="cls-5" d="M993.05-1478.28s-6.69,3.94-20,6.62a282.92,282.92,0,0,1-4.54,43.92s2.71-41.92,1-46c0,0,18.23-5.4,20.14-8.32" transform="translate(925.02 1842.11)"/><path class="cls-5" d="M987.06-1485.73s-12.23,5.18-20.06,7.47c0,0-3.4,38.73-8.43,41.79,0,0,6.56-22.64,6-44,0,0,16.73-5.9,20.19-9.12" transform="translate(925.02 1842.11)"/><line class="cls-10" x1="1481.76" y1="1887.17" x2="1477.81" y2="1884.22"/><path class="cls-10" d="M387.64,61.15s8.89,7,8.21,14,3.24,7.32,3.24,7.32c8.68.68,9.36,2.21,9.36,2.21A13.39,13.39,0,0,0,419,89.74c7.83-3.23,14.64-2.38,21.28,7.49S459,96.89,468,98.6s25.19-4.09,32.51-3.41,19.24-5.62,24.51-5.45,7.15-3.91,10.73-4.25,8.51-4.94,9.53-7.66,6.13-3.23,8-9.87,5.79-8.85,6-11.07c.12-1.64-1.63-8.65-4.92-13a9.34,9.34,0,0,0-3.94-3.3c-5.78-2.21-7.14-11.06-22.12-18.21s-26-6.76-26-6.76c-23.32,2.43-26.55.12-30.8-1.41s-14,1.7-17.88,2.55-17.87.51-20.25,1-4.26,6.81-15.66,5.79-16.17,7.32-18.38,10-9.2,3.07-10.31,6.13A105.81,105.81,0,0,0,385.81,52c-.34,2,3.23,10.89,1.36,21.44s4.94,13.79,4.94,13.79,2.89,4.43,5.44,9,16.51,5.79,23.83,11.41,21.28,3.4,24.68,4.59,14.81,7,28.43,3.92,30.81-.34,34-3.58,13.45-1.87,18-4.93,11.92-5.62,16.86-8.85,10-17.54,14.12-20.94,7.32-10,5.45-18-5.13-13.9-6.6-15" transform="translate(925.02 1842.11)"/><path class="cls-10" d="M402.91,69.74s25-20.85,25.45-23.65,5-4.43,7.24-7.41,7-3.15,7.23-4.85,4.26-1.79,5.7-3.23,3.32-1.11,5.19-3,7.75-6.39,8.68-5.62.86,2-.42,3.06-1.45,3.66-3.24,4.43a27.28,27.28,0,0,0-10.29,7,14.14,14.14,0,0,1-5.19,1.79s-2,.34-2.39,3.48-2,4.26-4.93,4.09-4.43,2-6.22,4.94-6,3.91-6,3.91-2.21.68-2.13,4-16.93,11.06-16.93,11.06S402.68,70.72,402.91,69.74Z" transform="translate(925.02 1842.11)"/><path class="cls-10" d="M435.13,80.94s-3.45-2,2.42-4.85a7.42,7.42,0,0,1,4.6-5.91c4.21-1.63,11.23-10.69,14.55-10.44s5.9-4.59,6.33-6.89,3-1.66,7.08-4.08,3.7-8.05,9.7-9.58,5.74-8,8.93-9.57,4.73-4,9.45-7.15S506,18.89,506,18.89L479,45.32s-2.62,1.28-4.37,8a10.54,10.54,0,0,1-4.62,2.94c-3.39,1.27-3.62,5.1-7,6.76s-2.63,4.73-6.71,4.73-3.45,2.93-7.53,3.57-4.73,3.32-7.28,5.36A57.87,57.87,0,0,1,435.13,80.94Z" transform="translate(925.02 1842.11)"/><path class="cls-10" d="M480.45,83.74s22.34-18.25,24-26,3.19.13,10.46-9.57a11.39,11.39,0,0,0,4.35-3.7s6.38-1.32,6.51-2.32,4.34-1.77,6.63-4.07,5.24-3.95,6.64-3.32-2.42,2.3-3.83,4.6S524.74,49.91,521,50.55s-3.32,7-6.51,7.79-3.83-2.55-9.83,6.13a6.09,6.09,0,0,1-1.79,2.68c-1.14.76-4.34,1.28-5.61,6.13s-13.45,10.46-13.45,10.46S480.28,85.23,480.45,83.74Z" transform="translate(925.02 1842.11)"/><line class="cls-10" x1="1388.26" y1="1558.09" x2="1384.32" y2="1555.13"/><path class="cls-10" d="M294.14-267.93s8.9,7,8.22,14,3.23,7.31,3.23,7.31c8.68.69,9.36,2.22,9.36,2.22a13.46,13.46,0,0,0,10.56,5.1c7.83-3.23,14.63-2.38,21.27,7.49s18.73-.34,27.75,1.36,25.19-4.08,32.51-3.4,19.23-5.62,24.51-5.45,7.15-3.91,10.72-4.25,8.51-4.94,9.53-7.66,6.13-3.24,8-9.87,5.79-8.85,6-11.07c.13-1.64-1.63-8.65-4.91-13a9.4,9.4,0,0,0-3.94-3.3c-5.79-2.21-7.15-11.06-22.13-18.21s-26-6.76-26-6.76c-23.32,2.43-26.55.12-30.81-1.41s-14,1.7-17.87,2.55-17.87.51-20.26,1-4.25,6.81-15.66,5.79-16.17,7.32-18.38,10-9.19,3.07-10.31,6.13a105.3,105.3,0,0,0-3.14,12.26c-.34,2,3.24,10.89,1.37,21.44s4.93,13.79,4.93,13.79,2.9,4.43,5.45,9,16.51,5.79,23.83,11.41,21.28,3.4,24.68,4.59,14.81,7,28.43,3.92,30.8-.34,34-3.58,13.44-1.87,18-4.93,11.92-5.62,16.85-8.86,10-17.53,14.13-20.93a18,18,0,0,0,5.45-18c-1.88-8-5.13-13.9-6.6-15" transform="translate(925.02 1842.11)"/><path class="cls-10" d="M309.42-259.34s25-20.85,25.45-23.66,5-4.42,7.23-7.4,7-3.15,7.24-4.85,4.25-1.79,5.7-3.24,3.32-1.1,5.19-3,7.74-6.39,8.68-5.62.85,2-.43,3.06-1.44,3.66-3.23,4.43a27.17,27.17,0,0,0-10.3,7,13.94,13.94,0,0,1-5.19,1.78s-2,.34-2.38,3.49-2,4.26-4.94,4.09-4.42,2-6.21,4.93-6,3.92-6,3.92-2.22.68-2.13,4-16.94,11.06-16.94,11.06S309.19-258.36,309.42-259.34Z" transform="translate(925.02 1842.11)"/><path class="cls-10" d="M341.63-248.14s-3.44-2.05,2.43-4.86a7.39,7.39,0,0,1,4.59-5.9c4.22-1.63,11.24-10.69,14.56-10.44s5.89-4.59,6.33-6.89,3-1.66,7.07-4.09,3.7-8,9.7-9.57,5.75-8,8.94-9.57,4.72-4,9.45-7.15,7.78-3.58,7.78-3.58l-26.93,26.43s-2.63,1.27-4.38,8a10.45,10.45,0,0,1-4.61,2.94c-3.39,1.27-3.63,5.1-7,6.76s-2.63,4.73-6.71,4.73-3.45,2.93-7.54,3.57-4.72,3.32-7.27,5.36A60.28,60.28,0,0,1,341.63-248.14Z" transform="translate(925.02 1842.11)"/><path class="cls-10" d="M387-245.34s22.34-18.25,24-26,3.19.13,10.47-9.57a11.29,11.29,0,0,0,4.34-3.71s6.38-1.32,6.51-2.32,4.34-1.76,6.64-4.06,5.23-4,6.64-3.32-2.43,2.3-3.83,4.6-10.47,10.59-14.17,11.23-3.32,7-6.51,7.79-3.83-2.55-9.83,6.13a6.09,6.09,0,0,1-1.79,2.68c-1.15.76-4.34,1.27-5.62,6.13s-13.44,10.46-13.44,10.46S386.78-243.85,387-245.34Z" transform="translate(925.02 1842.11)"/><path class="cls-11" d="M999.54-1472.89s-11.09,6.38-21.39,6.21c0,0-.94,42-3.92,48.42a218.64,218.64,0,0,0,6.57-46s19.21-.86,25.64-4.64" transform="translate(925.02 1842.11)"/></g><g id="Calque_3" data-name="Calque 3"><path class="cls-1" d="M733.21,744.89v18.9s-6.64,8.93-36.25,0-41.62-6-58.47-14.88S581.3,724.21,577.72,713s-4.49-34.38-2.8-38.47" transform="translate(925.02 1842.11)"/><path class="cls-2" d="M980.74,744.89v18.9s-6.64,8.93-36.26,0-41.62-6-58.47-14.88-57.19-24.7-60.76-35.93-4.5-34.38-2.8-38.47" transform="translate(925.02 1842.11)"/><path class="cls-2" d="M993.74,719.94V746.1s-3.43,2.07-13,0" transform="translate(925.02 1842.11)"/><path class="cls-12" d="M578.7,663.73s11.36-6,22.94-2.07,37.45,18,37.45,18-3.07,7.49,2.21,9.7,16.34,0,16.34,0l9.51,4.59" transform="translate(925.02 1842.11)"/><path class="cls-12" d="M599.54,648.48s-2.45,11.44,2.1,13.18" transform="translate(925.02 1842.11)"/><path class="cls-12" d="M641.27,645.46s-27.14,2.65-25.94,22.06" transform="translate(925.02 1842.11)"/><path class="cls-12" d="M659.5,651.34s-23.72,0-32.29,22.09" transform="translate(925.02 1842.11)"/><path class="cls-12" d="M639.09,679.7a19.4,19.4,0,0,1,19.57-1.1s7.57,4.76-1,10.8" transform="translate(925.02 1842.11)"/><path class="cls-12" d="M681.44,695.4s9.75-6.93,0-33L658.66,678.6" transform="translate(925.02 1842.11)"/><path class="cls-12" d="M701.89,675.84s5.07,17.48-12.19,24.29" transform="translate(925.02 1842.11)"/><path class="cls-12" d="M702.59,708s13.95-4.57,15-20" transform="translate(925.02 1842.11)"/><path class="cls-12" d="M717.56,716.44s12.24-7,13.57-16.52" transform="translate(925.02 1842.11)"/><path class="cls-12" d="M580.67,695.4S578.79,676.86,616.3,668" transform="translate(925.02 1842.11)"/><path class="cls-12" d="M628.28,674l-5.36,1.86c-47.35,15.45-19.72,38.86-19.72,38.86l38.1-25.3" transform="translate(925.02 1842.11)"/><path class="cls-12" d="M603.71,715s59.87,19.09,66.35-9.3" transform="translate(925.02 1842.11)"/><path class="cls-12" d="M651.35,733.29s24.79-.79,32-15.34" transform="translate(925.02 1842.11)"/><path class="cls-12" d="M684.15,740.14s13.77-1.36,16-14.2" transform="translate(925.02 1842.11)"/><path class="cls-12" d="M701.75,744s11.77-4.49,14.66-12" transform="translate(925.02 1842.11)"/><path class="cls-12" d="M746.22,746.1" transform="translate(925.02 1842.11)"/><path class="cls-13" d="M746.22,719l.91,26a1.24,1.24,0,0,1-.91,1.47,30.46,30.46,0,0,1-13,0" transform="translate(925.02 1842.11)"/><path class="cls-4" d="M1855-8.14c-.74-.21-42.13-12.26-53.87-23.75s-8.68-18.38-8.68-18.38,3.31-5.62,19.4,4.09S1863-13.5,1870.1-21.42s-13.27-22.72-13.27-22.72-66.13-64.34-115.66-55.92-40.34,38.81-40.34,38.81,1,39.07,108.25,56.94c0,0,22.72,4.59,32.94,7.91S1858.61.54,1858.61.54,1860.87-6.44,1855-8.14Z" transform="translate(925.02 1842.11)"/><path class="cls-4" d="M1858.61.54V19.43s-6.64,8.94-36.25,0-41.62-6-58.47-14.87-57.19-24.7-60.77-35.93-4.49-34.39-2.8-38.47" transform="translate(925.02 1842.11)"/><path class="cls-4" d="M1704.1-80.63s11.36-6,22.94-2.06,37.45,18,37.45,18-3.07,7.49,2.21,9.7,16.34,0,16.34,0l9.51,4.59" transform="translate(925.02 1842.11)"/><path class="cls-4" d="M1724.94-95.87s-2.45,11.44,2.1,13.18" transform="translate(925.02 1842.11)"/><path class="cls-4" d="M1766.67-98.9s-27.14,2.65-25.94,22.07" transform="translate(925.02 1842.11)"/><path class="cls-4" d="M1784.9-93s-23.72,0-32.29,22.09" transform="translate(925.02 1842.11)"/><path class="cls-4" d="M1764.49-64.65a19.41,19.41,0,0,1,19.57-1.11s7.57,4.77-1,10.81" transform="translate(925.02 1842.11)"/><path class="cls-4" d="M1806.84-48.95s9.75-6.93,0-33l-22.78,16.21" transform="translate(925.02 1842.11)"/><path class="cls-4" d="M1827.3-68.51s5.06,17.48-12.19,24.28" transform="translate(925.02 1842.11)"/><path class="cls-4" d="M1828-36.38s14-4.56,15-20" transform="translate(925.02 1842.11)"/><path class="cls-4" d="M1843-27.91s12.24-7,13.57-16.52" transform="translate(925.02 1842.11)"/><path class="cls-4" d="M1706.07-48.95s-1.88-18.54,35.63-27.42" transform="translate(925.02 1842.11)"/><path class="cls-4" d="M1753.68-70.37l-5.35,1.86C1701-53.06,1728.6-29.65,1728.6-29.65l38.1-25.3" transform="translate(925.02 1842.11)"/><path class="cls-4" d="M1729.11-29.36s59.87,19.09,66.35-9.29" transform="translate(925.02 1842.11)"/><path class="cls-4" d="M1776.75-11.07s24.79-.78,32-15.33" transform="translate(925.02 1842.11)"/><path class="cls-4" d="M1809.55-4.22s13.77-1.35,16-14.19" transform="translate(925.02 1842.11)"/><path class="cls-4" d="M1827.15-.35s11.77-4.49,14.66-12" transform="translate(925.02 1842.11)"/><path class="cls-4" d="M1871.62,1.74" transform="translate(925.02 1842.11)"/><path class="cls-4" d="M1871.62-25.37l.91,26a1.24,1.24,0,0,1-.91,1.47,30.29,30.29,0,0,1-13,0" transform="translate(925.02 1842.11)"/><path class="cls-8" d="M5322.57-470.26s1.79-31.65-13.53-62.63c0,0,23,28.93,21.79,62.63" transform="translate(925.02 1842.11)"/><path class="cls-8" d="M5338.15-472.89s-8.3-43.49-9.83-77.2c0,0-8.46,25.46-1.8,51" transform="translate(925.02 1842.11)"/><path class="cls-8" d="M5409.31-427.35s13.22-9.76,19.73-5.8c0,0,5.62-1.53,2.56-2.92s-.77-3.46-.77-3.46,6.89-.64,10.47-2.94-1.92-2.42-1.92-2.42c-4.72-1.54-1.53-3.07-1.53-3.07,5.11-.13,18.26-6.64,20-7.78s10-6.9,1.79-10.73-20.42,12.26-23.11,13.28-1.27-3.07-4.59-4.6-8.68,15.32-8.3,11.11-2.3-5.49-2.3-5.49c-8.93-.13-14.88,19.59-14.88,19.59" transform="translate(925.02 1842.11)"/><path class="cls-8" d="M5410-422.43s15.61,8.56,19.82,7.66.76-4.59.76-4.59,1.07-2,4.3.38,5,3.19,6.81,2.17-3.57-5-2.3-5.62,15.95,7.54,23.87,3.32-1.14-7.93-5.23-8.24-16.21,1-16.21,1-1.53-2.3-.51-3.83.38-3.58-2.56-2.81-5.23,2.81-6.51,2.55-1.08-1.89-3.19-2.68" transform="translate(925.02 1842.11)"/><path class="cls-2" d="M5731-580.63s1.78-31.66-13.54-62.64c0,0,23,28.94,21.79,62.64" transform="translate(925.02 1842.11)"/><path class="cls-2" d="M5746.57-583.27s-8.3-43.49-9.83-77.19c0,0-8.46,25.45-1.8,51" transform="translate(925.02 1842.11)"/><path class="cls-2" d="M5817.73-537.73s13.22-9.75,19.73-5.8c0,0,5.62-1.53,2.56-2.92s-.77-3.46-.77-3.46,6.9-.64,10.47-2.93-1.91-2.43-1.91-2.43c-4.73-1.53-1.54-3.06-1.54-3.06,5.11-.13,18.26-6.64,20-7.79s10-6.89,1.78-10.72-20.42,12.25-23.1,13.27-1.28-3.06-4.6-4.59-8.68,15.32-8.3,11.1-2.29-5.49-2.29-5.49c-8.94-.12-14.89,19.6-14.89,19.6" transform="translate(925.02 1842.11)"/><path class="cls-2" d="M5818.42-532.8s15.6,8.55,19.81,7.66.77-4.6.77-4.6,1.06-2,4.3.38,5,3.2,6.8,2.18-3.57-5-2.29-5.62,15.94,7.53,23.86,3.32-1.14-7.94-5.23-8.25-16.21,1-16.21,1-1.53-2.3-.51-3.83.38-3.57-2.55-2.81-5.24,2.81-6.51,2.56-1.09-1.9-3.2-2.69" transform="translate(925.02 1842.11)"/><path class="cls-14" d="M5373.3-423.94s2.74,16.22,7.75,22.06" transform="translate(925.02 1842.11)"/><path class="cls-14" d="M5388.87-419.7s1.77,9.09,7.14,13.69" transform="translate(925.02 1842.11)"/><path class="cls-14" d="M5343.64-411.36s1.37,12,4.74,17.18" transform="translate(925.02 1842.11)"/><path class="cls-14" d="M5360.62-411.36a39,39,0,0,0,5.79,13.06" transform="translate(925.02 1842.11)"/><path class="cls-8" d="M5271.26-804.58s1.78-31.66-13.54-62.64c0,0,23,28.94,21.79,62.64" transform="translate(925.02 1842.11)"/><path class="cls-8" d="M5286.83-807.22s-8.3-43.49-9.83-77.19c0,0-8.46,25.45-1.8,51" transform="translate(925.02 1842.11)"/><path class="cls-8" d="M5358-761.67s13.22-9.76,19.73-5.8c0,0,5.62-1.53,2.56-2.92s-.77-3.46-.77-3.46,6.89-.64,10.47-2.94-1.92-2.43-1.92-2.43c-4.72-1.53-1.53-3.06-1.53-3.06,5.11-.13,18.26-6.64,20-7.79s10-6.89,1.79-10.72-20.42,12.25-23.1,13.28-1.28-3.07-4.6-4.6-8.68,15.32-8.3,11.11-2.3-5.49-2.3-5.49c-8.93-.13-14.88,19.59-14.88,19.59" transform="translate(925.02 1842.11)"/><path class="cls-8" d="M5358.68-756.75s15.6,8.55,19.81,7.66.77-4.59.77-4.59,1.06-2.05,4.29.38,5,3.19,6.81,2.17-3.57-5-2.3-5.62,15.95,7.53,23.87,3.32-1.14-7.94-5.23-8.24-16.21,1-16.21,1-1.53-2.29-.51-3.83.38-3.57-2.55-2.8-5.24,2.8-6.52,2.55-1.08-1.89-3.19-2.68" transform="translate(925.02 1842.11)"/><path class="cls-14" d="M5322-758.27s2.74,16.23,7.75,22.07" transform="translate(925.02 1842.11)"/><path class="cls-14" d="M5337.55-754s1.78,9.08,7.14,13.69" transform="translate(925.02 1842.11)"/><path class="cls-14" d="M5292.32-745.68s1.37,12,4.74,17.18" transform="translate(925.02 1842.11)"/><path class="cls-14" d="M5309.3-745.68a38.93,38.93,0,0,0,5.79,13" transform="translate(925.02 1842.11)"/><path class="cls-14" d="M5303.6-816.81a14.15,14.15,0,0,1,11.49-6.3c8.08-.34,8.93,1.2,9.44,0s-1.7-10.72,2.56-11.23,6.72-.68,6.59,4.11.45,8,1.92,7.66,15.78-3.09,20.59,3.72c0,0,1,2-1.1,2s-11.07-1.53-11.54,0,6.3,8.77,7.83,12.3-2.93,1.53-2.93,1.53-9.11-7.19-12.3-5.19-2.51,12-2.51,12-.17,3.58-2.38,5.45-4.86,3.83-5.2-.85.17-22-5.36-17.7a48,48,0,0,0-9.1,5.78s-4.94,3.49-4.6.34,5.7-9.95,8.51-11.57.77-5.36-4.25-4-6.3,4.42-7,3.15Z" transform="translate(925.02 1842.11)"/><path class="cls-14" d="M5291.49-803.94s10-11.58,12.38-12.36" transform="translate(925.02 1842.11)"/><path class="cls-14" d="M5356.38-817.54s14.9,11.33,16.49,22.35.56,13.2.56,13.2" transform="translate(925.02 1842.11)"/><path class="cls-2" d="M5680.76-768.3s79.48-47.31,91.74-46,12.77,1.53,15.32,4.76,6.3,18.73-8.34,24.17-78.3,19.24-95,22C5684.5-763.36,5674.22-762.64,5680.76-768.3Z" transform="translate(925.02 1842.11)"/><path class="cls-2" d="M5713.48-787.08s-37.66-8.28-20.47-45.22l9.79-16.17s10.38,2.13,15.57-2.63c0,0,18.73,11.66,22.81,21.36,0,0,7.57,12.84,1.06,27.31" transform="translate(925.02 1842.11)"/><path class="cls-2" d="M5702.8-848.47s1.79-31.65-13.53-62.63c0,0,23,28.93,21.78,62.63" transform="translate(925.02 1842.11)"/><path class="cls-2" d="M5718.37-851.1s-8.3-43.49-9.83-77.2c0,0-8.45,25.46-1.8,51" transform="translate(925.02 1842.11)"/><path class="cls-2" d="M5789.53-805.56s13.23-9.76,19.74-5.8c0,0,5.61-1.53,2.55-2.92s-.77-3.46-.77-3.46,6.9-.64,10.47-2.94-1.91-2.42-1.91-2.42c-4.73-1.54-1.54-3.07-1.54-3.07,5.11-.13,18.26-6.64,20.05-7.78s9.95-6.9,1.78-10.73-20.42,12.26-23.1,13.28-1.28-3.07-4.6-4.6-8.68,15.32-8.3,11.11-2.29-5.49-2.29-5.49c-8.94-.13-14.89,19.59-14.89,19.59" transform="translate(925.02 1842.11)"/><path class="cls-2" d="M5790.22-800.64s15.6,8.56,19.81,7.66.77-4.59.77-4.59,1.06-2,4.3.38,5,3.19,6.8,2.17-3.57-5-2.29-5.62,15.94,7.54,23.86,3.32-1.14-7.93-5.23-8.24-16.21,1-16.21,1-1.53-2.3-.51-3.83.38-3.58-2.55-2.81-5.24,2.81-6.51,2.55-1.09-1.89-3.19-2.68" transform="translate(925.02 1842.11)"/><path class="cls-2" d="M5753.52-802.15s2.74,16.22,7.76,22.06" transform="translate(925.02 1842.11)"/><path class="cls-2" d="M5769.1-797.91s1.77,9.09,7.14,13.69" transform="translate(925.02 1842.11)"/><path class="cls-2" d="M5723.86-789.57s1.37,12,4.74,17.18" transform="translate(925.02 1842.11)"/><path class="cls-2" d="M5740.84-789.57a39,39,0,0,0,5.79,13.06" transform="translate(925.02 1842.11)"/><path class="cls-2" d="M5735.14-860.7a14.15,14.15,0,0,1,11.49-6.29c8.08-.34,8.93,1.19,9.44,0s-1.7-10.73,2.56-11.24,6.72-.68,6.59,4.11.45,8,1.92,7.66,15.79-3.09,20.59,3.72c0,0,1,2-1.1,2s-11.07-1.53-11.53,0,6.29,8.77,7.83,12.3-2.94,1.53-2.94,1.53-9.11-7.19-12.3-5.19-2.51,12-2.51,12-.17,3.57-2.38,5.44-4.85,3.83-5.19-.85.17-22-5.37-17.7a47.73,47.73,0,0,0-9.1,5.79s-4.94,3.49-4.6.34,5.7-10,8.51-11.58.77-5.36-4.25-4-6.3,4.43-7,3.15Z" transform="translate(925.02 1842.11)"/><path class="cls-2" d="M5723-847.82s10-11.59,12.38-12.37" transform="translate(925.02 1842.11)"/><path class="cls-2" d="M5787.93-861.43s14.89,11.34,16.49,22.35.55,13.2.55,13.2" transform="translate(925.02 1842.11)"/><path class="cls-2" d="M2199.75,112.18s79.49-47.32,91.75-46,12.76,1.54,15.32,4.77,6.29,18.72-8.35,24.17-78.29,19.23-95,22C2203.5,117.12,2193.22,117.84,2199.75,112.18Z" transform="translate(925.02 1842.11)"/><path class="cls-2" d="M2232.48,93.4s-37.66-8.28-20.47-45.22L2221.79,32s10.39,2.13,15.58-2.64c0,0,18.72,11.66,22.81,21.36,0,0,7.56,12.85,1.06,27.32" transform="translate(925.02 1842.11)"/><path class="cls-2" d="M2221.79,32s1.79-31.66-13.53-62.64c0,0,23,28.94,21.79,62.64" transform="translate(925.02 1842.11)"/><path class="cls-2" d="M2237.37,29.37s-8.3-43.49-9.83-77.19c0,0-8.46,25.45-1.8,51" transform="translate(925.02 1842.11)"/><path class="cls-2" d="M2308.53,74.91s13.22-9.75,19.73-5.79c0,0,5.62-1.54,2.56-2.93s-.77-3.46-.77-3.46,6.89-.63,10.47-2.93-1.92-2.43-1.92-2.43c-4.72-1.53-1.53-3.06-1.53-3.06,5.11-.13,18.26-6.64,20-7.79s10-6.89,1.79-10.72-20.43,12.25-23.11,13.27-1.27-3.06-4.59-4.59-8.68,15.32-8.3,11.1-2.3-5.48-2.3-5.48c-8.93-.13-14.88,19.59-14.88,19.59" transform="translate(925.02 1842.11)"/><path class="cls-2" d="M2309.21,79.84s15.61,8.55,19.82,7.66.76-4.6.76-4.6,1.07-2,4.3.39,5,3.19,6.81,2.17-3.57-5-2.3-5.62,16,7.53,23.87,3.32-1.14-7.94-5.23-8.25-16.21,1-16.21,1-1.53-2.3-.51-3.83.38-3.57-2.56-2.81-5.23,2.81-6.51,2.56-1.08-1.89-3.19-2.68" transform="translate(925.02 1842.11)"/><path class="cls-2" d="M2272.52,78.32s2.74,16.23,7.75,22.07" transform="translate(925.02 1842.11)"/><path class="cls-2" d="M2288.09,82.56s1.77,9.09,7.14,13.7" transform="translate(925.02 1842.11)"/><path class="cls-2" d="M2242.86,90.9s1.37,12,4.74,17.19" transform="translate(925.02 1842.11)"/><path class="cls-2" d="M2259.84,90.9a38.93,38.93,0,0,0,5.79,13.06" transform="translate(925.02 1842.11)"/><path class="cls-2" d="M2254.13,19.78a14.18,14.18,0,0,1,11.5-6.3c8.08-.34,8.93,1.19,9.44,0s-1.7-10.72,2.55-11.23,6.73-.68,6.6,4.1.45,8.05,1.91,7.66,15.79-3.08,20.6,3.73c0,0,1,2-1.11,2s-11.06-1.53-11.53,0,6.3,8.77,7.83,12.3-2.93,1.53-2.93,1.53-9.11-7.19-12.3-5.19-2.51,12-2.51,12-.17,3.58-2.39,5.45-4.85,3.83-5.19-.85.17-22-5.36-17.71a48.59,48.59,0,0,0-9.11,5.79s-4.93,3.49-4.59.34,5.7-10,8.51-11.57.77-5.36-4.26-4-6.29,4.42-7,3.15Z" transform="translate(925.02 1842.11)"/><path class="cls-2" d="M2242,32.65s10-11.58,12.37-12.36" transform="translate(925.02 1842.11)"/><path class="cls-2" d="M2306.92,19.05s14.9,11.33,16.49,22.35.56,13.2.56,13.2" transform="translate(925.02 1842.11)"/><image width="1300" height="1040" transform="translate(1815.02) scale(0.15)" xlink:href="65130735-crevettes-et-crevettes-ic%C3%B4nes-conception.jpg"/><path class="cls-5" d="M1099.25-1398.11s-1.64-10,1.18-12.57,5.46-3.32,7.34-4.51,5.36-5.19,7.57-4.94,1.62,3.24,1.62,3.24-4.6,15.83-7,16.42l-3.45,1.74" transform="translate(925.02 1842.11)"/><path class="cls-5" d="M1099.57-1430.19s-17-8.49-14.87-17.43,3.83-8.93,4.6-10.81,5.56-6.29,10.27-6.89,4.2-2.81,6.66-1.28,10.47,9.09,11.83,14.93c0,0,1.79,5.41,0,7.67" transform="translate(925.02 1842.11)"/><path class="cls-5" d="M1072.83-1437.83s-16.21-2.4-20.55-13.84c0,0,9.87-6.59,10-10.84,0,0-23.66-2.21-20.85-11.58a41,41,0,0,0,3.83-10.12c.94-4.85,7.58-13.36,10.13-12.94s24.09,6.38,27.32,12.77" transform="translate(925.02 1842.11)"/><path class="cls-5" d="M1089.68-1401.13s-1.89-10-1-12.19,1.49-2,1.49-2,9.83,4.43,12.31,3" transform="translate(925.02 1842.11)"/><path class="cls-5" d="M1086.83-1426s-12.21.21-14-11.83c0,0,10.06-5.5,11.69-10.15" transform="translate(925.02 1842.11)"/><path class="cls-5" d="M1087.13-1355.79a56.15,56.15,0,0,1-12.39,19.32c-4.34-16.85,15.4-50.37,15.4-50.37" transform="translate(925.02 1842.11)"/><path class="cls-5" d="M1088.75-1388.25s-28.47,17.76-26.43,42.25a29.13,29.13,0,0,0,14.3-10.38" transform="translate(925.02 1842.11)"/><path class="cls-2" d="M1256.39-1137.27s-7.15-6.45,0-12.64,11.11-2.62,11.37-1.53.63,9.83-4.47,12.63S1256.39-1137.27,1256.39-1137.27Z" transform="translate(925.02 1842.11)"/><path class="cls-2" d="M1262.59-1166.23s-9.26-12.62-1.17-19.94a15.77,15.77,0,0,0,4.93-7.49c1.45-4.85,11.75-7,12.34-3.32s2.13,17.54.94,19.41a9.26,9.26,0,0,1-3,4" transform="translate(925.02 1842.11)"/><path class="cls-2" d="M1244.91-1201.93s-21.37-1.34-22.56-13.85c0,0,.34-9.62,7.75-15.24s11.57-5.36,12.68-7.32,22,12.39,22.72,17.26" transform="translate(925.02 1842.11)"/><path class="cls-2" d="M1257-1137.07s3.61,39.58-7.28,45c0,0-7.4-22.24,4.38-48.44,0,0-6.53,2.09-6-6.56s1.7-8.68,2.56-7.53,5.53,4.41,7.12,3.57" transform="translate(925.02 1842.11)"/><path class="cls-2" d="M1249.93-1169.24s-6-7.91-3-10.71c0,0,7.4-.48,9.61-2.58s1.54-2.47,1.54-2.47" transform="translate(925.02 1842.11)"/><path class="cls-2" d="M1212.39-1205.62s-18.21-3-20.59-11.78c0,0,7.73-5.82,9.47-9.79" transform="translate(925.02 1842.11)"/><path class="cls-2" d="M1259.37-1152.07s-1.64-10,1.18-12.57,5.46-3.31,7.33-4.51,5.36-5.19,7.58-4.93,1.61,3.23,1.61,3.23-4.59,15.83-7,16.43l-3.46,1.73" transform="translate(925.02 1842.11)"/><path class="cls-2" d="M1259.68-1184.14s-17-8.5-14.86-17.43,3.83-8.94,4.6-10.81,5.55-6.3,10.26-6.89,4.2-2.81,6.67-1.28,10.47,9.08,11.83,14.93c0,0,1.79,5.41,0,7.66" transform="translate(925.02 1842.11)"/><path class="cls-2" d="M1233-1191.78s-16.22-2.41-20.56-13.84c0,0,9.88-6.59,10-10.85,0,0-23.66-2.21-20.85-11.57a41.65,41.65,0,0,0,3.83-10.13c.94-4.85,7.57-13.36,10.13-12.93s24.08,6.38,27.32,12.76" transform="translate(925.02 1842.11)"/><path class="cls-2" d="M1249.8-1155.08s-1.9-10-1-12.19,1.49-2,1.49-2,9.83,4.43,12.3,3" transform="translate(925.02 1842.11)"/><path class="cls-2" d="M1247-1179.95s-12.22.21-14-11.83c0,0,10.06-5.51,11.68-10.15" transform="translate(925.02 1842.11)"/><path class="cls-2" d="M1247.24-1109.74a56,56,0,0,1-12.38,19.32c-4.34-16.85,15.4-50.37,15.4-50.37" transform="translate(925.02 1842.11)"/><path class="cls-2" d="M1248.86-1142.21s-28.47,17.77-26.42,42.26a29.14,29.14,0,0,0,14.29-10.39" transform="translate(925.02 1842.11)"/><path class="cls-2" d="M1191.8-1217.4s-8.81-11.94-5.49-21.12,5.11-15.31,8-16,12.77-2.93,14.3-2,6.81,5.41,6.81,5.41" transform="translate(925.02 1842.11)"/><path class="cls-2" d="M1341.54-1383.85s-7.15-6.44,0-12.63,11.11-2.62,11.36-1.54.64,9.83-4.47,12.64S1341.54-1383.85,1341.54-1383.85Z" transform="translate(925.02 1842.11)"/><path class="cls-2" d="M1347.74-1412.8s-9.26-12.62-1.18-19.94a15.74,15.74,0,0,0,4.94-7.49c1.44-4.85,11.74-7,12.34-3.32s2.13,17.53.93,19.41a9.2,9.2,0,0,1-3,4" transform="translate(925.02 1842.11)"/><path class="cls-2" d="M1330.05-1448.5s-21.36-1.35-22.55-13.86c0,0,.34-9.61,7.74-15.23s11.58-5.36,12.68-7.32,22,12.39,22.73,17.26" transform="translate(925.02 1842.11)"/><path class="cls-2" d="M1339.2-1387s-6.53,2.09-6-6.56,1.69-8.68,2.55-7.53,5.54,4.4,7.13,3.57" transform="translate(925.02 1842.11)"/><path class="cls-2" d="M1335.07-1415.81s-6-7.91-3-10.72c0,0,7.41-.47,9.62-2.57s1.54-2.47,1.54-2.47" transform="translate(925.02 1842.11)"/><path class="cls-2" d="M1297.54-1452.2s-18.21-3-20.6-11.77c0,0,7.73-5.82,9.48-9.79" transform="translate(925.02 1842.11)"/><path class="cls-2" d="M1344.52-1398.64s-1.65-10,1.18-12.57,5.46-3.32,7.33-4.51,5.36-5.19,7.57-4.93,1.62,3.23,1.62,3.23-4.59,15.83-7,16.43l-3.45,1.73" transform="translate(925.02 1842.11)"/><path class="cls-2" d="M1344.83-1430.72s-17-8.49-14.86-17.42,3.83-8.94,4.59-10.81,5.56-6.3,10.27-6.9,4.2-2.8,6.67-1.27,10.47,9.08,11.83,14.92c0,0,1.79,5.42,0,7.67" transform="translate(925.02 1842.11)"/><path class="cls-2" d="M1318.09-1438.36s-16.21-2.4-20.55-13.84c0,0,9.87-6.58,10-10.84,0,0-23.66-2.21-20.85-11.57a41.65,41.65,0,0,0,3.83-10.13c.93-4.85,7.57-13.36,10.12-12.94s24.09,6.39,27.32,12.77" transform="translate(925.02 1842.11)"/><path class="cls-2" d="M1334.94-1401.65s-1.89-10-1-12.2,1.49-2,1.49-2,9.83,4.43,12.31,3" transform="translate(925.02 1842.11)"/><path class="cls-2" d="M1332.09-1426.53s-12.21.22-14-11.83c0,0,10.07-5.5,11.69-10.14" transform="translate(925.02 1842.11)"/><path class="cls-2" d="M1340.72-1384.72l-2.69-.36s-9.34,26.89-4,46.38c0,0,12.17-10.64,7.49-45.15" transform="translate(925.02 1842.11)"/><path class="cls-2" d="M1335.4-1387.36s-19.73,33.51-15.39,50.37a56,56,0,0,0,12.38-19.32" transform="translate(925.02 1842.11)"/><path class="cls-2" d="M1334-1388.78s-28.47,17.76-26.43,42.25a29.13,29.13,0,0,0,14.3-10.38" transform="translate(925.02 1842.11)"/><path class="cls-2" d="M1276.94-1464s-8.8-11.94-5.48-21.12,5.1-15.31,8-16,12.76-2.93,14.3-2,6.8,5.4,6.8,5.4" transform="translate(925.02 1842.11)"/><path class="cls-5" d="M1031.68-1463.45s-48.38,2.26-53.23-49.06c0,0-1-23.87-4.73-27.45s-21.19-18.89-21.19-18.89.38-2.55,2.17-.77,40.29,24.13,51.74,33.19,31.92,19.41,35.54,20.69,13,7.74,13.36,8.59" transform="translate(925.02 1842.11)"/><circle class="cls-5" cx="1909.59" cy="319.39" r="3.38"/><path class="cls-2" d="M1882.62-1270.7s-7.15-6.45,0-12.64,11.1-2.62,11.36-1.54.64,9.83-4.47,12.64S1882.62-1270.7,1882.62-1270.7Z" transform="translate(925.02 1842.11)"/><path class="cls-2" d="M1888.82-1299.66s-9.27-12.62-1.18-19.94a15.69,15.69,0,0,0,4.93-7.49c1.45-4.85,11.75-7,12.34-3.32s2.13,17.53.94,19.41a9.17,9.17,0,0,1-3,4" transform="translate(925.02 1842.11)"/><path class="cls-2" d="M1871.13-1335.36s-21.36-1.34-22.56-13.86c0,0,.34-9.61,7.75-15.23s11.57-5.36,12.68-7.32,22,12.39,22.72,17.26" transform="translate(925.02 1842.11)"/><path class="cls-2" d="M1883.17-1270.5s3.62,39.58-7.28,45c0,0-7.4-22.24,4.39-48.44,0,0-6.54,2.09-6-6.56s1.69-8.68,2.55-7.53,5.54,4.41,7.13,3.57" transform="translate(925.02 1842.11)"/><path class="cls-2" d="M1876.15-1302.67s-6-7.91-3-10.72c0,0,7.4-.47,9.62-2.57s1.54-2.47,1.54-2.47" transform="translate(925.02 1842.11)"/><path class="cls-2" d="M1838.62-1339.06s-18.22-3-20.6-11.77c0,0,7.73-5.82,9.47-9.79" transform="translate(925.02 1842.11)"/><circle class="cls-2" cx="2695.93" cy="432" r="1.15"/><path class="cls-2" d="M1763.21-1416.9s-12.34-11.89-19.49-11.46c0,0,8.24-3.43,18.59,6.58" transform="translate(925.02 1842.11)"/><path class="cls-2" d="M1764.75-1400.6s-9-21-25.88-22.91c0,0,13.32-1.79,25.36,15.44" transform="translate(925.02 1842.11)"/><path class="cls-2" d="M1779.39-1365.67s-6.69,3.94-20,6.62a282.92,282.92,0,0,1-4.54,43.92s2.71-41.92,1-46c0,0,18.23-5.39,20.14-8.31" transform="translate(925.02 1842.11)"/><path class="cls-2" d="M1773.4-1373.11s-12.23,5.17-20.06,7.47c0,0-3.4,38.72-8.43,41.79,0,0,6.56-22.64,6-44,0,0,16.73-5.9,20.19-9.12" transform="translate(925.02 1842.11)"/><path class="cls-2" d="M1785.88-1360.28s-11.09,6.38-21.39,6.21c0,0-.94,42-3.92,48.43a218.64,218.64,0,0,0,6.57-46s19.21-.87,25.64-4.65" transform="translate(925.02 1842.11)"/><path class="cls-2" d="M1885.6-1285.5s-1.65-10,1.17-12.57,5.47-3.32,7.34-4.51,5.36-5.19,7.57-4.93,1.62,3.23,1.62,3.23-4.6,15.83-7,16.43l-3.45,1.73" transform="translate(925.02 1842.11)"/><path class="cls-2" d="M1885.91-1317.58s-17-8.49-14.87-17.42,3.83-8.94,4.6-10.81,5.56-6.3,10.27-6.89,4.2-2.81,6.66-1.28,10.47,9.08,11.83,14.92c0,0,1.79,5.42,0,7.67" transform="translate(925.02 1842.11)"/><path class="cls-2" d="M1859.17-1325.22s-16.21-2.4-20.55-13.84c0,0,9.87-6.58,10-10.84,0,0-23.66-2.21-20.85-11.57a41.2,41.2,0,0,0,3.83-10.13c.94-4.85,7.58-13.36,10.13-12.93s24.09,6.38,27.32,12.76" transform="translate(925.02 1842.11)"/><path class="cls-2" d="M1876-1288.51s-1.89-10-1-12.19,1.49-2,1.49-2,9.83,4.43,12.31,3" transform="translate(925.02 1842.11)"/><path class="cls-2" d="M1873.17-1313.39s-12.21.22-14-11.83c0,0,10.06-5.5,11.69-10.14" transform="translate(925.02 1842.11)"/><path class="cls-2" d="M1873.47-1243.17a56,56,0,0,1-12.38,19.32c-4.35-16.85,15.39-50.37,15.39-50.37" transform="translate(925.02 1842.11)"/><path class="cls-2" d="M1875.09-1275.64s-28.47,17.76-26.43,42.25a29.13,29.13,0,0,0,14.3-10.38" transform="translate(925.02 1842.11)"/><path class="cls-2" d="M1818-1350.83s-48.38,2.25-53.23-49.07c0,0-1-23.87-4.73-27.44s-21.19-18.9-21.19-18.9.39-2.55,2.17-.76,40.29,24.12,51.74,33.19,31.92,19.4,35.54,20.68,13,7.74,13.36,8.6" transform="translate(925.02 1842.11)"/><circle class="cls-2" cx="2695.93" cy="432" r="3.38"/><path class="cls-2" d="M1547.11-1183.54s-7.15-6.44,0-12.63,11.1-2.62,11.36-1.54.64,9.83-4.47,12.64S1547.11-1183.54,1547.11-1183.54Z" transform="translate(925.02 1842.11)"/><path class="cls-2" d="M1553.31-1212.49s-9.27-12.62-1.18-19.94a15.69,15.69,0,0,0,4.93-7.49c1.45-4.85,11.75-7,12.34-3.32s2.13,17.53.94,19.41a9.26,9.26,0,0,1-3,4" transform="translate(925.02 1842.11)"/><path class="cls-2" d="M1535.62-1248.19s-21.37-1.35-22.56-13.86c0,0,.34-9.61,7.75-15.23s11.57-5.36,12.68-7.32,22,12.39,22.72,17.26" transform="translate(925.02 1842.11)"/><path class="cls-2" d="M1547.66-1183.33s3.62,39.58-7.28,45c0,0-7.4-22.24,4.39-48.44,0,0-6.54,2.09-6-6.56s1.69-8.68,2.55-7.53,5.54,4.4,7.12,3.57" transform="translate(925.02 1842.11)"/><path class="cls-2" d="M1540.64-1215.5s-6.05-7.91-3-10.72c0,0,7.4-.47,9.62-2.57s1.54-2.47,1.54-2.47" transform="translate(925.02 1842.11)"/><path class="cls-2" d="M1503.11-1251.89s-18.22-3-20.6-11.77c0,0,7.73-5.82,9.47-9.79" transform="translate(925.02 1842.11)"/><circle class="cls-6" cx="2360.42" cy="519.17" r="1.15"/><path class="cls-2" d="M1427.7-1329.73s-12.34-11.89-19.49-11.46c0,0,8.24-3.43,18.59,6.58" transform="translate(925.02 1842.11)"/><path class="cls-2" d="M1429.24-1313.43s-9-21-25.88-22.91c0,0,13.31-1.79,25.36,15.44" transform="translate(925.02 1842.11)"/><path class="cls-2" d="M1443.88-1278.5s-6.69,3.94-20,6.62a282.14,282.14,0,0,1-4.53,43.92s2.7-41.92,1-46c0,0,18.23-5.39,20.14-8.31" transform="translate(925.02 1842.11)"/><path class="cls-2" d="M1437.88-1285.94s-12.22,5.17-20.05,7.47c0,0-3.41,38.72-8.43,41.79,0,0,6.56-22.64,6-44,0,0,16.73-5.9,20.19-9.12" transform="translate(925.02 1842.11)"/><path class="cls-2" d="M1550.08-1198.33s-1.64-10,1.18-12.57,5.46-3.32,7.34-4.51,5.36-5.19,7.57-4.93,1.62,3.23,1.62,3.23-4.6,15.83-7,16.43l-3.45,1.73" transform="translate(925.02 1842.11)"/><path class="cls-2" d="M1550.39-1230.41s-17-8.49-14.86-17.42,3.83-8.94,4.6-10.81,5.55-6.3,10.26-6.9,4.2-2.8,6.67-1.27,10.47,9.08,11.83,14.92c0,0,1.79,5.42,0,7.67" transform="translate(925.02 1842.11)"/><path class="cls-2" d="M1523.66-1238s-16.21-2.4-20.55-13.84c0,0,9.87-6.58,10-10.84,0,0-23.66-2.21-20.85-11.57a41.2,41.2,0,0,0,3.83-10.13c.94-4.85,7.58-13.36,10.13-12.94s24.08,6.39,27.32,12.77" transform="translate(925.02 1842.11)"/><path class="cls-2" d="M1540.51-1201.34s-1.89-10-1-12.2,1.49-2,1.49-2,9.83,4.43,12.31,3" transform="translate(925.02 1842.11)"/><path class="cls-2" d="M1537.66-1226.22s-12.21.22-14-11.83c0,0,10.06-5.5,11.69-10.14" transform="translate(925.02 1842.11)"/><path class="cls-2" d="M1538-1156a56.15,56.15,0,0,1-12.39,19.32c-4.34-16.86,15.4-50.37,15.4-50.37" transform="translate(925.02 1842.11)"/><path class="cls-2" d="M1539.57-1188.47s-28.46,17.76-26.42,42.25a29.13,29.13,0,0,0,14.3-10.38" transform="translate(925.02 1842.11)"/><path class="cls-2" d="M1482.51-1263.66s-48.38,2.25-53.23-49.07c0,0-1-23.87-4.73-27.44s-21.19-18.9-21.19-18.9.38-2.55,2.17-.76,40.28,24.12,51.74,33.19,31.92,19.4,35.54,20.68,13,7.74,13.36,8.59" transform="translate(925.02 1842.11)"/><circle class="cls-2" cx="2360.42" cy="519.17" r="3.38"/><path class="cls-2" d="M2068.43-145.75s-7.15-6.45,0-12.64,11.1-2.61,11.36-1.53.64,9.83-4.47,12.64S2068.43-145.75,2068.43-145.75Z" transform="translate(925.02 1842.11)"/><path class="cls-2" d="M2074.63-174.71s-9.27-12.61-1.18-19.93a15.69,15.69,0,0,0,4.93-7.49c1.45-4.85,11.75-7,12.34-3.32s2.13,17.53.94,19.4a9.17,9.17,0,0,1-3,4.05" transform="translate(925.02 1842.11)"/><path class="cls-2" d="M2056.94-210.41s-21.36-1.34-22.56-13.85c0,0,.34-9.62,7.75-15.23s11.57-5.37,12.68-7.32,22,12.38,22.72,17.25" transform="translate(925.02 1842.11)"/><path class="cls-2" d="M2069-145.54s3.62,39.58-7.28,45c0,0-7.4-22.24,4.39-48.44,0,0-6.54,2.08-6-6.56s1.69-8.69,2.55-7.54,5.54,4.41,7.13,3.58" transform="translate(925.02 1842.11)"/><path class="cls-2" d="M2062-177.72s-6-7.9-3-10.71c0,0,7.4-.47,9.62-2.57s1.54-2.48,1.54-2.48" transform="translate(925.02 1842.11)"/><path class="cls-2" d="M2024.43-214.1s-18.22-3-20.6-11.78c0,0,7.73-5.81,9.47-9.78" transform="translate(925.02 1842.11)"/><circle class="cls-6" cx="2881.74" cy="1556.96" r="1.15"/><path class="cls-2" d="M1949-291.94s-12.34-11.89-19.49-11.47c0,0,8.24-3.42,18.59,6.59" transform="translate(925.02 1842.11)"/><path class="cls-2" d="M1950.56-275.64s-9-21-25.88-22.92c0,0,13.32-1.79,25.36,15.45" transform="translate(925.02 1842.11)"/><path class="cls-2" d="M1965.2-240.71s-6.69,3.94-20,6.62a282.92,282.92,0,0,1-4.54,43.92s2.71-41.92,1-46c0,0,18.23-5.39,20.14-8.32" transform="translate(925.02 1842.11)"/><path class="cls-2" d="M1959.21-248.16s-12.23,5.18-20.06,7.48c0,0-3.4,38.72-8.43,41.78,0,0,6.56-22.64,6-44,0,0,16.73-5.9,20.19-9.12" transform="translate(925.02 1842.11)"/><path class="cls-2" d="M2071.4-160.54s-1.64-10,1.18-12.57,5.47-3.32,7.34-4.51,5.36-5.19,7.57-4.94,1.62,3.24,1.62,3.24-4.6,15.83-7,16.42l-3.45,1.74" transform="translate(925.02 1842.11)"/><path class="cls-2" d="M2071.72-192.62s-17-8.49-14.87-17.43,3.83-8.93,4.6-10.81,5.56-6.29,10.27-6.89,4.2-2.81,6.66-1.28,10.47,9.09,11.83,14.93c0,0,1.79,5.41,0,7.67" transform="translate(925.02 1842.11)"/><path class="cls-2" d="M2045-200.26s-16.21-2.4-20.55-13.84c0,0,9.87-6.58,10-10.84,0,0-23.66-2.21-20.85-11.57a41.2,41.2,0,0,0,3.83-10.13c.94-4.85,7.58-13.36,10.13-12.94s24.09,6.38,27.32,12.77" transform="translate(925.02 1842.11)"/><path class="cls-2" d="M2061.83-163.56s-1.89-9.95-1-12.19,1.49-2,1.49-2,9.83,4.44,12.31,3" transform="translate(925.02 1842.11)"/><path class="cls-2" d="M2059-188.43s-12.21.21-14-11.83c0,0,10.06-5.5,11.69-10.15" transform="translate(925.02 1842.11)"/><path class="cls-2" d="M2059.28-118.22a56,56,0,0,1-12.39,19.32c-4.34-16.85,15.4-50.37,15.4-50.37" transform="translate(925.02 1842.11)"/><path class="cls-2" d="M2060.9-150.68s-28.47,17.76-26.43,42.25a29.13,29.13,0,0,0,14.3-10.38" transform="translate(925.02 1842.11)"/><path class="cls-2" d="M2003.83-225.88s-48.38,2.26-53.23-49.06c0,0-1-23.87-4.73-27.45s-21.19-18.89-21.19-18.89.39-2.55,2.17-.77,40.29,24.13,51.74,33.19,31.92,19.41,35.54,20.69,13,7.74,13.36,8.59" transform="translate(925.02 1842.11)"/><circle class="cls-2" cx="2881.74" cy="1556.96" r="3.38"/><path class="cls-5" d="M1499.75-1600s-1.64-10,1.18-12.57,5.46-3.32,7.34-4.51,5.36-5.19,7.57-4.94,1.62,3.24,1.62,3.24-4.6,15.83-7,16.42l-3.45,1.74" transform="translate(925.02 1842.11)"/><path class="cls-5" d="M1500.06-1632s-17-8.49-14.86-17.43,3.83-8.93,4.6-10.8,5.55-6.3,10.26-6.9,4.2-2.81,6.67-1.27,10.47,9.08,11.83,14.92c0,0,1.79,5.42,0,7.67" transform="translate(925.02 1842.11)"/><path class="cls-5" d="M1473.33-1639.69s-16.21-2.4-20.55-13.84c0,0,9.87-6.58,10-10.84,0,0-23.66-2.21-20.85-11.57a41.2,41.2,0,0,0,3.83-10.13c.94-4.85,7.58-13.36,10.13-12.94s24.08,6.39,27.32,12.77" transform="translate(925.02 1842.11)"/><path class="cls-5" d="M1490.18-1603s-1.89-10-1-12.2,1.49-2,1.49-2,9.83,4.43,12.31,3" transform="translate(925.02 1842.11)"/><path class="cls-5" d="M1487.33-1627.86s-12.21.21-14-11.83c0,0,10.06-5.5,11.69-10.15" transform="translate(925.02 1842.11)"/><path class="cls-5" d="M1487.63-1557.65a56.15,56.15,0,0,1-12.39,19.32c-4.34-16.85,15.4-50.36,15.4-50.36" transform="translate(925.02 1842.11)"/><path class="cls-5" d="M1489.25-1590.11s-28.47,17.76-26.43,42.25a29.13,29.13,0,0,0,14.3-10.38" transform="translate(925.02 1842.11)"/><path class="cls-5" d="M1432.18-1665.3s-48.38,2.25-53.23-49.07c0,0-1-23.87-4.73-27.45s-21.19-18.89-21.19-18.89.38-2.55,2.17-.77,40.29,24.13,51.74,33.2,31.92,19.4,35.54,20.68,13,7.74,13.36,8.59" transform="translate(925.02 1842.11)"/><circle class="cls-5" cx="2310.09" cy="117.53" r="3.38"/><path class="cls-10" d="M489.91,16.54s-2.06-7.22,3.69-9.65S505.47-6.64,508.79-7.53s28.85-10.21,35.1-10.09,15.58,3.07,21.83.51S581.3-15.32,585-16s10.85-1.66,17.49,4c0,0,2.68,2.55,11.87,2s11.75,11.24,15.7,11,10.47,9,5,15.52-7.91,7.06-11.74,18.05-20.3,5.6-27.07,9-10.08,2.12-13.14,4.68-23.44,1.65-23.44,1.65" transform="translate(925.02 1842.11)"/><path class="cls-10" d="M563.35,67.79s15.39,3.57,24.2-1.79a17.93,17.93,0,0,1,6.13-1.4c2.94,0,8.43.76,12.89-1.66s10-7.54,15.71-7.79,5.49-5.87,7.53-8.68,6.13-3.32,7.34-6.26-.83-20.55,1.34-22.59-.34-8.39-1.34-9.83" transform="translate(925.02 1842.11)"/><path class="cls-10" d="M557.72,41.66S548.87,37.83,542.83,31c0,0-6.13-4.93-6.89-7.4s-5.2-3.83-6.3-4.17-2.81.72-4.43-5.69c0,0-1-1.46-4-1.46s-6-6.64-9.7-8.34c0,0-.85-.43-2.21-4s2-.55,2.89.47,7,6.38,8.26,6.13,5.36,4.25,6.64,4.34,3.76,5.34,6.26,5.13,4.2,2.68,4.12,3.92,13.7,17.3,17.7,18.38S559.51,41.57,557.72,41.66Z" transform="translate(925.02 1842.11)"/><path class="cls-10" d="M558.76,9.23,534.83-13.83s.43-1.53,5.11.85S552.28-4.64,555.17,1.4a4.34,4.34,0,0,0,4,2.39c2.89-.09,3.74,6.72,6,7.23s8.25.66,9.19,5.05,3.06,4.74,4.85,4.74,4.26,1.62,8.68,6.64A20.13,20.13,0,0,0,591.17,30a4.33,4.33,0,0,1,2.55,3.23c.43,1.88,4.17,2.47,3.66,3.75s-.59,3.49-5.78-.51-5.11-5.62-7.24-5.45-2.21-3.06-4.42-3.23-2.13,1.1-6.05-3.15-3.91-4.43-8.17-7.49c0,0-4.85-2.18-5.27-3.39S559.55,9.74,558.76,9.23Z" transform="translate(925.02 1842.11)"/><path class="cls-10" d="M622.53,29.87c-.27.16-11.42-6.19-14.87-10.59s-5.36-2.81-6.64-5.17-.89-4.47-5.74-5.75-3.39-5.87-7-6.83-7.6-5.42-9.83-6.7-5.3-5.68-4.41-5.74,9.83,6.76,11.11,7.34,3.83-.58,9.38,4.78,3.26,4.09,5.68,4.41,1.28,5.63,5.62,8.14,11.7,11.35,12.28,11.5S623,29.57,622.53,29.87Z" transform="translate(925.02 1842.11)"/><line class="cls-2" x1="1663.75" y1="1573.93" x2="1659.81" y2="1570.98"/><path class="cls-2" d="M569.63-252.09s8.9,7,8.22,14,3.23,7.32,3.23,7.32c8.68.68,9.36,2.21,9.36,2.21A13.42,13.42,0,0,0,601-223.5c7.83-3.23,14.63-2.38,21.27,7.49s18.73-.34,27.75,1.37,25.19-4.09,32.51-3.41,19.23-5.62,24.51-5.45,7.15-3.91,10.72-4.25,8.51-4.94,9.53-7.66,6.13-3.23,8-9.87,5.79-8.85,6-11.07c.13-1.64-1.63-8.64-4.91-13a9.4,9.4,0,0,0-3.94-3.3c-5.79-2.21-7.15-11.06-22.13-18.21s-26-6.76-26-6.76c-23.32,2.43-26.55.12-30.81-1.41s-14,1.7-17.87,2.55-17.87.51-20.26,1-4.25,6.81-15.66,5.79-16.17,7.32-18.38,10-9.19,3.07-10.31,6.13a106.33,106.33,0,0,0-3.14,12.26c-.34,2,3.24,10.89,1.37,21.44S574.1-226,574.1-226s2.9,4.43,5.45,9,16.51,5.79,23.83,11.41,21.27,3.4,24.68,4.59,14.81,7,28.42,3.92,30.81-.34,34-3.58,13.44-1.87,18-4.93,11.91-5.62,16.85-8.85,10-17.54,14.13-20.94,7.32-10,5.45-18-5.13-13.9-6.6-15.05" transform="translate(925.02 1842.11)"/><path class="cls-2" d="M584.91-243.5s25-20.85,25.45-23.65,5-4.43,7.23-7.41,7-3.15,7.24-4.85,4.25-1.79,5.7-3.23,3.32-1.11,5.19-3,7.74-6.39,8.68-5.62.85,2-.43,3.06-1.44,3.66-3.23,4.43a27.29,27.29,0,0,0-10.3,7,14,14,0,0,1-5.19,1.79s-2,.34-2.38,3.48-2,4.26-4.94,4.09-4.42,2-6.21,4.94-6,3.91-6,3.91-2.22.68-2.13,4-16.94,11.06-16.94,11.06S584.68-242.52,584.91-243.5Z" transform="translate(925.02 1842.11)"/><path class="cls-2" d="M617.12-232.3s-3.44-2,2.43-4.85a7.4,7.4,0,0,1,4.59-5.91c4.22-1.63,11.24-10.69,14.56-10.44s5.89-4.59,6.33-6.89,3-1.66,7.07-4.08,3.7-8,9.7-9.58,5.75-8,8.94-9.57,4.72-4,9.45-7.15,7.78-3.58,7.78-3.58L661-267.92s-2.63,1.28-4.38,8a10.45,10.45,0,0,1-4.61,2.94c-3.4,1.27-3.63,5.1-7,6.76s-2.63,4.73-6.72,4.73-3.44,2.93-7.53,3.57-4.72,3.32-7.27,5.36A58.58,58.58,0,0,1,617.12-232.3Z" transform="translate(925.02 1842.11)"/><path class="cls-2" d="M662.44-229.5s22.34-18.25,24-26,3.19.13,10.47-9.57a11.33,11.33,0,0,0,4.34-3.7s6.38-1.32,6.51-2.32,4.34-1.77,6.64-4.07,5.23-3.95,6.64-3.32-2.43,2.3-3.83,4.6-10.47,10.6-14.17,11.23-3.32,7-6.51,7.79-3.83-2.55-9.83,6.13a6.09,6.09,0,0,1-1.79,2.68c-1.15.77-4.34,1.28-5.62,6.13s-13.44,10.46-13.44,10.46S662.27-228,662.44-229.5Z" transform="translate(925.02 1842.11)"/><path class="cls-2" d="M671.9-296.7s-2-7.22,3.69-9.65,11.87-13.53,15.19-14.42,28.85-10.21,35.11-10.09,15.57,3.07,21.83.51,15.57,1.79,19.28,1.15,10.85-1.66,17.48,4c0,0,2.69,2.55,11.88,2s11.74,11.24,15.7,11,10.47,9,5,15.52-7.92,7.06-11.75,18.05-20.29,5.6-27.06,9-10.09,2.12-13.15,4.68-23.43,1.66-23.43,1.66" transform="translate(925.02 1842.11)"/><path class="cls-2" d="M745.35-245.45s15.39,3.57,24.2-1.79a17.93,17.93,0,0,1,6.13-1.4c2.93,0,8.42.76,12.89-1.66s10-7.54,15.7-7.79,5.49-5.87,7.53-8.68,6.14-3.32,7.35-6.26-.84-20.55,1.33-22.59-.33-8.39-1.33-9.83" transform="translate(925.02 1842.11)"/><path class="cls-2" d="M739.72-271.58s-8.85-3.83-14.89-10.64c0,0-6.13-4.93-6.9-7.4s-5.19-3.83-6.3-4.17-2.8.72-4.42-5.69c0,0-1-1.46-4-1.46s-6-6.64-9.7-8.34c0,0-.86-.43-2.22-4s2.05-.55,2.9.47,7,6.38,8.25,6.13,5.36,4.25,6.64,4.34,3.77,5.34,6.27,5.13,4.2,2.68,4.11,3.92,13.71,17.31,17.71,18.38S741.51-271.67,739.72-271.58Z" transform="translate(925.02 1842.11)"/><path class="cls-2" d="M740.75-304l-23.92-23.06s.42-1.53,5.1.85,12.34,8.34,15.24,14.38a4.32,4.32,0,0,0,4,2.39c2.89-.09,3.74,6.72,6,7.23s8.26.66,9.19,5.05,3.07,4.74,4.86,4.74,4.25,1.62,8.68,6.64a19.69,19.69,0,0,0,3.32,2.55,4.35,4.35,0,0,1,2.55,3.23c.42,1.88,4.17,2.47,3.66,3.75s-.6,3.49-5.79-.51-5.11-5.62-7.23-5.45-2.22-3.06-4.43-3.23-2.13,1.1-6-3.15-3.92-4.43-8.17-7.49c0,0-4.85-2.17-5.28-3.39S741.55-303.5,740.75-304Z" transform="translate(925.02 1842.11)"/><path class="cls-2" d="M804.53-283.37c-.28.16-11.43-6.19-14.88-10.59s-5.36-2.81-6.63-5.17-.9-4.47-5.75-5.75-3.38-5.87-7-6.83-7.6-5.42-9.83-6.7-5.3-5.68-4.4-5.74,9.83,6.76,11.1,7.34,3.83-.58,9.39,4.78,3.25,4.09,5.68,4.41,1.27,5.63,5.61,8.14,11.71,11.35,12.28,11.5S805-283.67,804.53-283.37Z" transform="translate(925.02 1842.11)"/><line class="cls-2" x1="3240.2" y1="1662.92" x2="3236.26" y2="1659.96"/><path class="cls-2" d="M2146.08-163.1s8.89,7,8.21,13.95,3.24,7.32,3.24,7.32c8.68.68,9.36,2.22,9.36,2.22a13.43,13.43,0,0,0,10.55,5.1c7.83-3.23,14.64-2.38,21.28,7.49s18.72-.34,27.74,1.36,25.19-4.08,32.51-3.4,19.24-5.62,24.51-5.45,7.15-3.91,10.73-4.25,8.51-4.94,9.53-7.66,6.13-3.24,8-9.87,5.79-8.86,6-11.07c.12-1.64-1.63-8.65-4.92-13a9.37,9.37,0,0,0-3.93-3.3c-5.79-2.21-7.15-11.06-22.13-18.21s-26-6.76-26-6.76c-23.32,2.43-26.56.12-30.81-1.41s-14,1.7-17.88,2.55-17.87.51-20.25,1-4.26,6.81-15.66,5.79-16.17,7.32-18.38,10-9.19,3.07-10.31,6.13a105.3,105.3,0,0,0-3.14,12.26c-.34,2,3.23,10.89,1.36,21.44s4.94,13.79,4.94,13.79,2.89,4.43,5.44,9,16.52,5.79,23.83,11.41,21.28,3.4,24.69,4.59,14.8,7,28.42,3.92,30.81-.34,34-3.58,13.45-1.87,18.05-4.93,11.91-5.62,16.85-8.86,10-17.53,14.12-20.93,7.32-10,5.45-18-5.13-13.9-6.59-15" transform="translate(925.02 1842.11)"/><path class="cls-2" d="M2161.36-154.51s25-20.85,25.44-23.66,5-4.42,7.24-7.4,7-3.15,7.23-4.85,4.26-1.79,5.7-3.24,3.32-1.1,5.2-3,7.74-6.39,8.68-5.62.85,2-.43,3.06-1.45,3.66-3.23,4.43a27.09,27.09,0,0,0-10.3,7,13.94,13.94,0,0,1-5.19,1.78s-2,.34-2.39,3.49-2,4.26-4.93,4.09-4.43,2-6.21,4.93-6.05,3.92-6.05,3.92-2.21.68-2.13,4-16.93,11.06-16.93,11.06S2161.12-153.53,2161.36-154.51Z" transform="translate(925.02 1842.11)"/><path class="cls-2" d="M2193.57-143.32s-3.45-2,2.42-4.85a7.4,7.4,0,0,1,4.6-5.9c4.21-1.63,11.23-10.69,14.55-10.44s5.9-4.59,6.33-6.89,3-1.66,7.08-4.09,3.7-8,9.7-9.57,5.74-8,8.94-9.57,4.72-4,9.44-7.15,7.79-3.58,7.79-3.58l-26.94,26.43s-2.62,1.27-4.37,8a10.54,10.54,0,0,1-4.62,2.94c-3.39,1.27-3.62,5.1-7,6.76s-2.62,4.73-6.71,4.73-3.45,2.93-7.53,3.57-4.72,3.32-7.28,5.36A58.72,58.72,0,0,1,2193.57-143.32Z" transform="translate(925.02 1842.11)"/><path class="cls-2" d="M2238.89-140.51s22.34-18.25,24-26,3.19.13,10.47-9.57a11.29,11.29,0,0,0,4.34-3.71s6.38-1.32,6.51-2.32,4.34-1.76,6.64-4.06,5.23-4,6.63-3.32-2.42,2.3-3.83,4.6-10.46,10.59-14.17,11.23-3.31,7-6.51,7.79-3.83-2.55-9.83,6.13a6,6,0,0,1-1.78,2.68c-1.15.76-4.34,1.27-5.62,6.12s-13.45,10.47-13.45,10.47S2238.72-139,2238.89-140.51Z" transform="translate(925.02 1842.11)"/><path class="cls-2" d="M2248.35-207.71s-2.06-7.22,3.69-9.65,11.87-13.53,15.19-14.42,28.85-10.22,35.11-10.09,15.57,3.06,21.83.51,15.57,1.79,19.27,1.15,10.85-1.66,17.49,4c0,0,2.68,2.55,11.87,2s11.75,11.23,15.71,11,10.46,8.95,5,15.52-7.91,7.05-11.74,18-20.3,5.6-27.06,9-10.09,2.12-13.15,4.67-23.44,1.66-23.44,1.66" transform="translate(925.02 1842.11)"/><path class="cls-2" d="M2321.79-156.46s15.4,3.57,24.2-1.79a17.91,17.91,0,0,1,6.13-1.41c2.94,0,8.43.77,12.9-1.66s9.95-7.53,15.7-7.78,5.49-5.88,7.53-8.68,6.13-3.32,7.34-6.26-.83-20.55,1.34-22.59-.34-8.39-1.34-9.83" transform="translate(925.02 1842.11)"/><path class="cls-2" d="M2316.17-182.59s-8.86-3.83-14.9-10.64c0,0-6.13-4.94-6.89-7.4s-5.19-3.83-6.3-4.18-2.81.72-4.43-5.68c0,0-1-1.46-4-1.46s-6-6.64-9.7-8.34c0,0-.85-.43-2.21-4s2-.56,2.89.47,7,6.38,8.26,6.12,5.36,4.26,6.64,4.34,3.76,5.34,6.26,5.14,4.2,2.67,4.12,3.92,13.7,17.3,17.7,18.38S2318-182.68,2316.17-182.59Z" transform="translate(925.02 1842.11)"/><path class="cls-2" d="M2317.2-215l-23.93-23.06s.43-1.53,5.11.85,12.34,8.34,15.23,14.38a4.34,4.34,0,0,0,4,2.39c2.9-.09,3.75,6.72,6,7.23s8.25.66,9.19,5,3.06,4.74,4.85,4.74,4.26,1.61,8.68,6.63a20,20,0,0,0,3.32,2.56,4.34,4.34,0,0,1,2.56,3.23c.42,1.87,4.17,2.47,3.65,3.75s-.59,3.49-5.78-.51-5.11-5.62-7.24-5.45-2.21-3.06-4.42-3.23-2.13,1.1-6-3.15-3.92-4.43-8.17-7.49c0,0-4.86-2.18-5.28-3.39S2318-214.51,2317.2-215Z" transform="translate(925.02 1842.11)"/><path class="cls-2" d="M2381-194.38c-.27.16-11.42-6.19-14.87-10.6s-5.36-2.8-6.64-5.17-.89-4.46-5.74-5.74-3.38-5.87-7-6.83-7.6-5.43-9.83-6.7-5.3-5.68-4.41-5.75,9.83,6.77,11.11,7.34,3.83-.57,9.38,4.79,3.26,4.09,5.68,4.41,1.28,5.63,5.62,8.14,11.7,11.34,12.28,11.49S2381.48-194.68,2381-194.38Z" transform="translate(925.02 1842.11)"/></g></svg>